<svg viewBox="0 0 277 113" fill="none" xmlns="http://www.w3.org/2000/svg">
  <path
    d="M21.12 43.894V45.496H6.612V43.894H21.12ZM14.82 40.114V44.29H12.858V40.114H14.82ZM19.464 32.662V40.402H8.196V32.662H19.464ZM10.14 34.228V38.836H17.538V34.228H10.14ZM36.7624 39.412V40.996H22.2904V39.412H36.7624ZM35.1424 36.334V37.936H24.0724V36.334H35.1424ZM34.9984 32.05V33.634H26.0164V36.91H24.0724V32.05H34.9984ZM35.2684 45.55V47.152H24.0544V45.55H35.2684ZM26.0164 42.382V45.946H24.0544V42.382H26.0164ZM49.9473 31.942V32.752C49.9473 33.76 49.6713 34.696 49.1193 35.56C48.5673 36.412 47.7933 37.126 46.7973 37.702C45.8133 38.278 44.6793 38.662 43.3953 38.854L42.6213 37.288C43.7133 37.132 44.6853 36.826 45.5373 36.37C46.3893 35.914 47.0493 35.368 47.5173 34.732C47.9853 34.096 48.2193 33.436 48.2193 32.752V31.942H49.9473ZM50.3073 31.942V32.752C50.3073 33.424 50.5413 34.078 51.0093 34.714C51.4773 35.35 52.1373 35.902 52.9893 36.37C53.8413 36.826 54.8133 37.132 55.9053 37.288L55.1313 38.854C53.8593 38.662 52.7253 38.278 51.7293 37.702C50.7333 37.114 49.9593 36.394 49.4073 35.542C48.8553 34.678 48.5793 33.748 48.5793 32.752V31.942H50.3073ZM50.1993 41.5V47.458H48.2193V41.5H50.1993ZM56.4993 40.258V41.878H42.0093V40.258H56.4993ZM69.5497 35.416V37.018H66.2737V35.416H69.5497ZM70.9717 31.438V40.942H68.9917V31.438H70.9717ZM65.6077 41.356C67.2877 41.356 68.6077 41.632 69.5677 42.184C70.5397 42.724 71.0257 43.468 71.0257 44.416C71.0257 45.376 70.5397 46.12 69.5677 46.648C68.6077 47.188 67.2877 47.458 65.6077 47.458C63.9157 47.458 62.5837 47.188 61.6117 46.648C60.6517 46.12 60.1717 45.376 60.1717 44.416C60.1717 43.78 60.3877 43.234 60.8197 42.778C61.2637 42.322 61.8937 41.974 62.7097 41.734C63.5257 41.482 64.4917 41.356 65.6077 41.356ZM65.6077 42.868C64.8757 42.868 64.2517 42.928 63.7357 43.048C63.2197 43.168 62.8237 43.342 62.5477 43.57C62.2837 43.798 62.1517 44.08 62.1517 44.416C62.1517 44.74 62.2837 45.016 62.5477 45.244C62.8237 45.472 63.2197 45.646 63.7357 45.766C64.2517 45.886 64.8757 45.946 65.6077 45.946C66.3397 45.946 66.9637 45.886 67.4797 45.766C67.9957 45.646 68.3857 45.472 68.6497 45.244C68.9257 45.016 69.0637 44.74 69.0637 44.416C69.0637 44.08 68.9257 43.798 68.6497 43.57C68.3857 43.342 67.9957 43.168 67.4797 43.048C66.9637 42.928 66.3397 42.868 65.6077 42.868ZM63.1057 33.04V34.156C63.1057 35.176 62.9317 36.136 62.5837 37.036C62.2357 37.936 61.7257 38.722 61.0537 39.394C60.3817 40.066 59.5717 40.57 58.6237 40.906L57.6337 39.34C58.4497 39.052 59.1457 38.644 59.7217 38.116C60.3097 37.576 60.7537 36.964 61.0537 36.28C61.3537 35.596 61.5037 34.888 61.5037 34.156V33.04H63.1057ZM63.5017 33.04V34.156C63.5017 34.828 63.6397 35.476 63.9157 36.1C64.2037 36.724 64.6297 37.282 65.1937 37.774C65.7577 38.266 66.4357 38.65 67.2277 38.926L66.2377 40.474C65.3137 40.162 64.5277 39.688 63.8797 39.052C63.2317 38.416 62.7397 37.678 62.4037 36.838C62.0797 35.986 61.9177 35.092 61.9177 34.156V33.04H63.5017ZM66.7777 32.482V34.066H58.1737V32.482H66.7777ZM78.6581 32.734V35.254C78.6581 36.526 78.4841 37.75 78.1361 38.926C77.7881 40.102 77.2781 41.146 76.6061 42.058C75.9461 42.958 75.1541 43.642 74.2301 44.11L73.0421 42.508C73.8701 42.112 74.5841 41.536 75.1841 40.78C75.7961 40.012 76.2581 39.148 76.5701 38.188C76.8941 37.228 77.0561 36.25 77.0561 35.254V32.734H78.6581ZM79.0181 32.734V35.254C79.0181 36.214 79.1681 37.156 79.4681 38.08C79.7801 39.004 80.2241 39.832 80.8001 40.564C81.3761 41.284 82.0661 41.842 82.8701 42.238L81.6641 43.804C80.7761 43.348 80.0141 42.688 79.3781 41.824C78.7421 40.948 78.2561 39.946 77.9201 38.818C77.5961 37.678 77.4341 36.49 77.4341 35.254V32.734H79.0181ZM85.7861 31.438V47.458H83.7881V31.438H85.7861ZM88.2341 37.72V39.376H85.3361V37.72H88.2341ZM101.519 31.438V41.644H99.5385V31.438H101.519ZM103.751 35.65V37.27H100.979V35.65H103.751ZM96.3885 41.806C98.0325 41.806 99.3285 42.058 100.277 42.562C101.225 43.054 101.699 43.738 101.699 44.614C101.699 45.502 101.225 46.192 100.277 46.684C99.3285 47.188 98.0325 47.44 96.3885 47.44C94.7445 47.44 93.4485 47.188 92.5005 46.684C91.5525 46.192 91.0785 45.502 91.0785 44.614C91.0785 43.738 91.5525 43.054 92.5005 42.562C93.4485 42.058 94.7445 41.806 96.3885 41.806ZM96.3885 43.3C95.3085 43.3 94.4805 43.414 93.9045 43.642C93.3285 43.858 93.0405 44.182 93.0405 44.614C93.0405 45.046 93.3285 45.376 93.9045 45.604C94.4805 45.832 95.3145 45.946 96.4065 45.946C97.4865 45.946 98.3145 45.832 98.8905 45.604C99.4665 45.376 99.7545 45.046 99.7545 44.614C99.7545 44.182 99.4665 43.858 98.8905 43.642C98.3145 43.414 97.4805 43.3 96.3885 43.3ZM98.4405 33.058V34.624H89.0085V33.058H98.4405ZM93.7425 35.254C94.4985 35.254 95.1705 35.374 95.7585 35.614C96.3465 35.842 96.8025 36.172 97.1265 36.604C97.4625 37.036 97.6305 37.534 97.6305 38.098C97.6305 38.662 97.4625 39.166 97.1265 39.61C96.8025 40.042 96.3465 40.378 95.7585 40.618C95.1705 40.846 94.4925 40.96 93.7245 40.96C92.9565 40.96 92.2785 40.846 91.6905 40.618C91.1025 40.378 90.6465 40.042 90.3225 39.61C89.9985 39.166 89.8365 38.662 89.8365 38.098C89.8365 37.534 89.9985 37.036 90.3225 36.604C90.6465 36.172 91.1025 35.842 91.6905 35.614C92.2905 35.374 92.9745 35.254 93.7425 35.254ZM93.7245 36.712C93.1245 36.712 92.6385 36.838 92.2665 37.09C91.9065 37.33 91.7265 37.666 91.7265 38.098C91.7265 38.53 91.9065 38.872 92.2665 39.124C92.6385 39.376 93.1245 39.502 93.7245 39.502C94.3245 39.502 94.8045 39.376 95.1645 39.124C95.5365 38.872 95.7225 38.53 95.7225 38.098C95.7225 37.666 95.5365 37.33 95.1645 37.09C94.8045 36.838 94.3245 36.712 93.7245 36.712ZM94.7145 31.312V33.904H92.7345V31.312H94.7145ZM119.123 39.7V41.284H104.651V39.7H119.123ZM117.503 45.55V47.152H106.451V45.55H117.503ZM108.413 42.49V46.054H106.451V42.49H108.413ZM111.887 31.924C113.039 31.924 114.047 32.056 114.911 32.32C115.775 32.584 116.441 32.962 116.909 33.454C117.389 33.946 117.629 34.522 117.629 35.182C117.629 35.854 117.389 36.436 116.909 36.928C116.441 37.42 115.775 37.798 114.911 38.062C114.047 38.326 113.039 38.458 111.887 38.458C110.735 38.458 109.727 38.326 108.863 38.062C107.999 37.798 107.327 37.42 106.847 36.928C106.379 36.436 106.145 35.854 106.145 35.182C106.145 34.522 106.379 33.946 106.847 33.454C107.327 32.962 107.999 32.584 108.863 32.32C109.727 32.056 110.735 31.924 111.887 31.924ZM111.887 33.526C111.119 33.526 110.453 33.592 109.889 33.724C109.337 33.844 108.911 34.03 108.611 34.282C108.323 34.522 108.179 34.822 108.179 35.182C108.179 35.542 108.323 35.848 108.611 36.1C108.911 36.352 109.337 36.544 109.889 36.676C110.453 36.808 111.119 36.874 111.887 36.874C112.655 36.874 113.315 36.808 113.867 36.676C114.419 36.544 114.839 36.352 115.127 36.1C115.427 35.848 115.577 35.542 115.577 35.182C115.577 34.822 115.427 34.522 115.127 34.282C114.839 34.03 114.419 33.844 113.867 33.724C113.315 33.592 112.655 33.526 111.887 33.526ZM138.878 39.106V40.69H124.406V39.106H138.878ZM132.614 36.64V39.736H130.652V36.64H132.614ZM137.222 36.01V37.594H126.188V36.01H137.222ZM137.114 32.14V33.724H128.132V37H126.188V32.14H137.114ZM131.606 41.626C133.334 41.626 134.684 41.884 135.656 42.4C136.64 42.904 137.132 43.618 137.132 44.542C137.132 45.466 136.64 46.18 135.656 46.684C134.684 47.2 133.334 47.458 131.606 47.458C129.866 47.458 128.504 47.2 127.52 46.684C126.548 46.18 126.062 45.466 126.062 44.542C126.062 43.618 126.548 42.904 127.52 42.4C128.504 41.884 129.866 41.626 131.606 41.626ZM131.588 43.138C130.448 43.138 129.572 43.258 128.96 43.498C128.36 43.738 128.06 44.086 128.06 44.542C128.06 45.01 128.36 45.364 128.96 45.604C129.56 45.832 130.436 45.946 131.588 45.946C132.752 45.946 133.634 45.832 134.234 45.604C134.834 45.364 135.134 45.01 135.134 44.542C135.134 44.086 134.828 43.738 134.216 43.498C133.616 43.258 132.74 43.138 131.588 43.138ZM145.664 32.734V35.254C145.664 36.586 145.484 37.852 145.124 39.052C144.764 40.24 144.236 41.284 143.54 42.184C142.856 43.084 142.028 43.768 141.056 44.236L139.868 42.598C140.72 42.214 141.458 41.644 142.082 40.888C142.718 40.132 143.204 39.268 143.54 38.296C143.876 37.312 144.044 36.298 144.044 35.254V32.734H145.664ZM146.042 32.734V35.254C146.042 36.25 146.204 37.216 146.528 38.152C146.852 39.088 147.32 39.922 147.932 40.654C148.556 41.374 149.288 41.92 150.128 42.292L148.976 43.894C148.028 43.45 147.206 42.796 146.51 41.932C145.826 41.056 145.304 40.048 144.944 38.908C144.596 37.756 144.422 36.538 144.422 35.254V32.734H146.042ZM153.242 31.402V47.476H151.262V31.402H153.242ZM169.011 31.438V43.282H167.031V31.438H169.011ZM164.565 32.626V34.21H156.123V32.626H164.565ZM155.709 39.538C159.681 39.538 162.741 39.412 164.889 39.16L164.997 40.618C163.641 40.834 162.189 40.984 160.641 41.068C159.105 41.14 157.527 41.176 155.907 41.176L155.709 39.538ZM159.417 34.012V39.754H157.509V34.012H159.417ZM163.179 34.012V39.754H161.271V34.012H163.179ZM168.093 34.318V35.902H164.799V34.318H168.093ZM168.093 37.468V39.07H164.799V37.468H168.093ZM169.389 45.55V47.134H158.553V45.55H169.389ZM160.515 42.364V46.684H158.553V42.364H160.515ZM177.003 32.806V33.886C177.003 34.846 176.823 35.746 176.463 36.586C176.115 37.426 175.599 38.158 174.915 38.782C174.231 39.406 173.409 39.868 172.449 40.168L171.459 38.62C172.287 38.38 172.995 38.02 173.583 37.54C174.171 37.048 174.615 36.49 174.915 35.866C175.215 35.23 175.365 34.57 175.365 33.886V32.806H177.003ZM177.381 32.806V33.886C177.381 34.522 177.531 35.14 177.831 35.74C178.143 36.328 178.587 36.856 179.163 37.324C179.751 37.78 180.453 38.128 181.269 38.368L180.297 39.898C179.349 39.61 178.533 39.172 177.849 38.584C177.177 37.996 176.661 37.3 176.301 36.496C175.953 35.68 175.779 34.81 175.779 33.886V32.806H177.381ZM180.729 32.374V33.922H171.999V32.374H180.729ZM184.581 31.438V40.114H182.601V31.438H184.581ZM176.013 40.834V42.472H182.637V40.834H184.581V47.26H174.069V40.834H176.013ZM176.013 45.658H182.637V44.002H176.013V45.658ZM204.354 31.42V47.44H202.374V31.42H204.354ZM199.62 33.094C199.62 34.774 199.38 36.316 198.9 37.72C198.432 39.112 197.652 40.396 196.56 41.572C195.468 42.736 194.022 43.756 192.222 44.632L191.196 43.066C192.72 42.334 193.956 41.5 194.904 40.564C195.852 39.616 196.542 38.56 196.974 37.396C197.418 36.22 197.64 34.906 197.64 33.454V33.094H199.62ZM198.558 33.094V34.696H191.988V33.094H198.558ZM219.636 35.596V37.18H208.656V35.596H219.636ZM210.618 31.726V36.316H208.656V31.726H210.618ZM221.256 38.728V40.33H206.784V38.728H221.256ZM213.984 41.518C215.712 41.518 217.062 41.776 218.034 42.292C219.018 42.796 219.51 43.516 219.51 44.452C219.51 45.388 219.018 46.114 218.034 46.63C217.062 47.158 215.712 47.422 213.984 47.422C212.256 47.422 210.9 47.158 209.916 46.63C208.932 46.114 208.44 45.388 208.44 44.452C208.44 43.516 208.926 42.796 209.898 42.292C210.882 41.776 212.244 41.518 213.984 41.518ZM213.984 43.03C212.832 43.03 211.95 43.15 211.338 43.39C210.738 43.63 210.438 43.984 210.438 44.452C210.438 44.92 210.738 45.274 211.338 45.514C211.95 45.754 212.832 45.874 213.984 45.874C215.136 45.874 216.012 45.754 216.612 45.514C217.212 45.274 217.512 44.92 217.512 44.452C217.512 43.984 217.212 43.63 216.612 43.39C216.012 43.15 215.136 43.03 213.984 43.03ZM229.663 31.69C231.475 31.69 232.885 31.924 233.893 32.392C234.901 32.86 235.405 33.538 235.405 34.426C235.405 35.314 234.901 35.998 233.893 36.478C232.885 36.946 231.475 37.18 229.663 37.18C227.851 37.18 226.441 36.946 225.433 36.478C224.425 35.998 223.921 35.314 223.921 34.426C223.921 33.538 224.425 32.86 225.433 32.392C226.441 31.924 227.851 31.69 229.663 31.69ZM229.663 33.13C228.451 33.13 227.533 33.244 226.909 33.472C226.285 33.688 225.973 34.012 225.973 34.444C225.973 34.864 226.279 35.182 226.891 35.398C227.515 35.614 228.433 35.722 229.645 35.722C230.869 35.722 231.793 35.614 232.417 35.398C233.041 35.182 233.353 34.864 233.353 34.444C233.353 34.012 233.035 33.688 232.399 33.472C231.775 33.244 230.863 33.13 229.663 33.13ZM236.899 38.044V39.628H222.427V38.044H236.899ZM235.099 40.69V44.614H226.081V46.234H224.155V43.228H233.155V42.184H224.101V40.69H235.099ZM235.549 45.82V47.314H224.155V45.82H235.549ZM256.618 39.772V41.338H242.146V39.772H256.618ZM250.372 37.936V40.384H248.392V37.936H250.372ZM255.034 37.054V38.566H244V37.054H255.034ZM254.926 31.87V33.382H245.962V37.9H244V31.87H254.926ZM254.548 34.444V35.92H245.386V34.444H254.548ZM249.382 42.256C251.146 42.256 252.508 42.478 253.468 42.922C254.428 43.354 254.908 43.996 254.908 44.848C254.908 45.688 254.428 46.33 253.468 46.774C252.508 47.218 251.146 47.44 249.382 47.44C247.606 47.44 246.238 47.218 245.278 46.774C244.318 46.33 243.838 45.688 243.838 44.848C243.838 43.996 244.318 43.354 245.278 42.922C246.238 42.478 247.606 42.256 249.382 42.256ZM249.382 43.696C248.194 43.696 247.306 43.792 246.718 43.984C246.13 44.176 245.836 44.464 245.836 44.848C245.836 45.232 246.13 45.52 246.718 45.712C247.306 45.892 248.188 45.982 249.364 45.982C250.552 45.982 251.44 45.892 252.028 45.712C252.628 45.52 252.928 45.232 252.928 44.848C252.928 44.464 252.628 44.176 252.028 43.984C251.44 43.792 250.558 43.696 249.382 43.696ZM265.564 33.976V35.542H257.788V33.976H265.564ZM261.694 36.406C262.366 36.406 262.966 36.568 263.494 36.892C264.022 37.204 264.436 37.648 264.736 38.224C265.036 38.788 265.186 39.43 265.186 40.15C265.186 40.882 265.036 41.536 264.736 42.112C264.436 42.676 264.022 43.12 263.494 43.444C262.966 43.756 262.366 43.912 261.694 43.912C261.034 43.912 260.44 43.756 259.912 43.444C259.384 43.12 258.97 42.676 258.67 42.112C258.37 41.536 258.22 40.882 258.22 40.15C258.22 39.43 258.37 38.788 258.67 38.224C258.97 37.648 259.384 37.204 259.912 36.892C260.44 36.568 261.034 36.406 261.694 36.406ZM261.694 38.044C261.358 38.044 261.058 38.134 260.794 38.314C260.542 38.482 260.338 38.728 260.182 39.052C260.038 39.364 259.966 39.73 259.966 40.15C259.966 40.57 260.038 40.942 260.182 41.266C260.326 41.578 260.53 41.824 260.794 42.004C261.058 42.172 261.358 42.256 261.694 42.256C262.03 42.256 262.33 42.172 262.594 42.004C262.858 41.824 263.062 41.578 263.206 41.266C263.362 40.942 263.44 40.57 263.44 40.15C263.44 39.73 263.362 39.364 263.206 39.052C263.062 38.728 262.858 38.482 262.594 38.314C262.33 38.134 262.03 38.044 261.694 38.044ZM271.486 31.42V47.44H269.614V31.42H271.486ZM270.226 38.026V39.628H267.436V38.026H270.226ZM268.066 31.762V46.72H266.212V31.762H268.066ZM262.666 31.852V34.966H260.722V31.852H262.666ZM20.202 60.438V69.672H18.312V60.438H20.202ZM17.016 60.726V69.51H15.162V60.726H17.016ZM15.72 64.236V65.856H13.002V64.236H15.72ZM13.488 61.59V68.664H7.224V61.59H13.488ZM9.06 63.102V67.17H11.652V63.102H9.06ZM20.202 70.374V76.26H9.474V70.374H20.202ZM11.418 71.94V74.694H18.276V71.94H11.418ZM35.6104 60.402V76.476H33.6304V60.402H35.6104ZM34.2064 66.18V67.764H29.7604V66.18H34.2064ZM24.8464 61.68V65.658H28.4824V61.68H30.4444V72.606H22.8664V61.68H24.8464ZM24.8464 71.004H28.4824V67.224H24.8464V71.004ZM52.4228 66.828V68.412H37.9508V66.828H52.4228ZM50.7128 64.254V65.802H39.7868V64.254H50.7128ZM50.5508 60.816V62.4H41.7488V65.55H39.7868V60.816H50.5508ZM50.6048 69.492V73.542H41.5868V75.18H39.6608V72.138H48.6608V71.004H39.6068V69.492H50.6048ZM51.0548 74.766V76.296H39.6608V74.766H51.0548ZM61.3153 62.076V63.66H54.2773V62.076H61.3153ZM58.4533 66.666V72.102H56.5093V66.666H58.4533ZM62.4673 62.076V63.21C62.4673 64.278 62.4373 65.28 62.3773 66.216C62.3293 67.152 62.2093 68.226 62.0173 69.438L60.0733 69.276C60.2653 68.1 60.3853 67.056 60.4333 66.144C60.4933 65.232 60.5233 64.254 60.5233 63.21V62.076H62.4673ZM66.0493 60.42V76.44H64.0873V60.42H66.0493ZM68.3713 66.972V68.61H65.4913V66.972H68.3713ZM53.4313 71.49C55.3153 71.49 57.0673 71.466 58.6873 71.418C60.3193 71.358 61.8433 71.238 63.2593 71.058L63.3673 72.498C61.9033 72.738 60.3553 72.9 58.7233 72.984C57.1033 73.068 55.4113 73.11 53.6473 73.11L53.4313 71.49ZM86.5421 60.438V68.592H84.5621V60.438H86.5421ZM86.5421 69.348V73.488H77.9741V75.342H76.0301V72.066H84.5981V70.878H75.9941V69.348H86.5421ZM87.0101 74.766V76.314H76.0301V74.766H87.0101ZM78.8561 60.834V62.04C78.8561 63.036 78.6761 63.972 78.3161 64.848C77.9681 65.712 77.4461 66.474 76.7501 67.134C76.0661 67.782 75.2381 68.268 74.2661 68.592L73.3121 67.008C74.1401 66.744 74.8481 66.36 75.4361 65.856C76.0361 65.34 76.4861 64.752 76.7861 64.092C77.0861 63.432 77.2361 62.748 77.2361 62.04V60.834H78.8561ZM79.2341 60.834V62.04C79.2341 62.724 79.3841 63.378 79.6841 64.002C79.9841 64.626 80.4221 65.178 80.9981 65.658C81.5741 66.138 82.2701 66.504 83.0861 66.756L82.1321 68.286C81.1841 67.986 80.3681 67.53 79.6841 66.918C79.0121 66.306 78.5021 65.586 78.1541 64.758C77.8061 63.918 77.6321 63.012 77.6321 62.04V60.834H79.2341ZM94.6065 61.734V64.254C94.6065 65.586 94.4265 66.852 94.0665 68.052C93.7065 69.24 93.1785 70.284 92.4825 71.184C91.7985 72.084 90.9705 72.768 89.9985 73.236L88.8105 71.598C89.6625 71.214 90.4005 70.644 91.0245 69.888C91.6605 69.132 92.1465 68.268 92.4825 67.296C92.8185 66.312 92.9865 65.298 92.9865 64.254V61.734H94.6065ZM94.9845 61.734V64.254C94.9845 65.25 95.1465 66.216 95.4705 67.152C95.7945 68.088 96.2625 68.922 96.8745 69.654C97.4985 70.374 98.2305 70.92 99.0705 71.292L97.9185 72.894C96.9705 72.45 96.1485 71.796 95.4525 70.932C94.7685 70.056 94.2465 69.048 93.8865 67.908C93.5385 66.756 93.3645 65.538 93.3645 64.254V61.734H94.9845ZM102.185 60.402V76.476H100.205V60.402H102.185ZM117.179 60.438V71.976H115.199V60.438H117.179ZM119.411 65.046V66.666H116.621V65.046H119.411ZM112.877 61.644C112.877 63.048 112.583 64.32 111.995 65.46C111.407 66.6 110.555 67.578 109.439 68.394C108.323 69.21 106.979 69.852 105.407 70.32L104.579 68.754C106.547 68.178 108.071 67.35 109.151 66.27C110.231 65.19 110.771 63.96 110.771 62.58V61.644H112.877ZM111.833 61.644V63.228H105.263V61.644H111.833ZM117.791 74.55V76.134H106.973V74.55H117.791ZM108.953 70.806V75.234H106.973V70.806H108.953ZM127.547 61.302C128.663 61.302 129.671 61.494 130.571 61.878C131.471 62.25 132.179 62.784 132.695 63.48C133.211 64.164 133.469 64.95 133.469 65.838C133.469 66.738 133.211 67.536 132.695 68.232C132.179 68.916 131.471 69.45 130.571 69.834C129.671 70.206 128.663 70.392 127.547 70.392C126.431 70.392 125.423 70.206 124.523 69.834C123.623 69.45 122.915 68.916 122.399 68.232C121.883 67.536 121.625 66.738 121.625 65.838C121.625 64.95 121.883 64.164 122.399 63.48C122.915 62.784 123.623 62.25 124.523 61.878C125.423 61.494 126.431 61.302 127.547 61.302ZM127.547 62.904C126.779 62.904 126.089 63.024 125.477 63.264C124.877 63.504 124.403 63.846 124.055 64.29C123.719 64.734 123.551 65.25 123.551 65.838C123.551 66.438 123.719 66.96 124.055 67.404C124.403 67.836 124.877 68.172 125.477 68.412C126.089 68.652 126.779 68.772 127.547 68.772C128.315 68.772 128.999 68.652 129.599 68.412C130.211 68.172 130.685 67.836 131.021 67.404C131.369 66.96 131.543 66.438 131.543 65.838C131.543 65.25 131.369 64.734 131.021 64.29C130.685 63.846 130.211 63.504 129.599 63.264C128.999 63.024 128.315 62.904 127.547 62.904ZM134.819 72.804V74.424H120.311V72.804H134.819ZM150.48 72.984V74.586H135.972V72.984H150.48ZM144.18 69.798V73.632H142.218V69.798H144.18ZM148.788 61.518V66.666H139.644V69.546H137.7V65.1H146.826V63.084H137.664V61.518H148.788ZM149.148 68.772V70.356H137.7V68.772H149.148ZM162.873 70.464C164.013 70.464 165.009 70.584 165.861 70.824C166.713 71.064 167.367 71.412 167.823 71.868C168.291 72.324 168.525 72.858 168.525 73.47C168.525 74.082 168.291 74.61 167.823 75.054C167.367 75.51 166.713 75.858 165.861 76.098C165.009 76.338 164.013 76.458 162.873 76.458C161.733 76.458 160.737 76.338 159.885 76.098C159.045 75.858 158.391 75.51 157.923 75.054C157.467 74.61 157.239 74.082 157.239 73.47C157.239 72.858 157.467 72.324 157.923 71.868C158.391 71.412 159.045 71.064 159.885 70.824C160.737 70.584 161.733 70.464 162.873 70.464ZM162.873 71.958C162.105 71.958 161.445 72.018 160.893 72.138C160.341 72.258 159.921 72.432 159.633 72.66C159.345 72.876 159.201 73.146 159.201 73.47C159.201 73.782 159.345 74.052 159.633 74.28C159.921 74.496 160.341 74.664 160.893 74.784C161.445 74.892 162.105 74.946 162.873 74.946C163.641 74.946 164.301 74.892 164.853 74.784C165.405 74.664 165.825 74.496 166.113 74.28C166.401 74.052 166.545 73.782 166.545 73.47C166.545 73.146 166.401 72.876 166.113 72.66C165.825 72.432 165.405 72.258 164.853 72.138C164.301 72.018 163.641 71.958 162.873 71.958ZM167.589 61.194V62.76H157.383V61.194H167.589ZM170.163 67.71V69.294H155.727V67.71H170.163ZM163.269 64.812V68.124H161.307V64.812H163.269ZM168.399 61.194V62.526C168.399 63.39 168.375 64.134 168.327 64.758C168.279 65.382 168.159 66.06 167.967 66.792L166.023 66.576C166.203 65.844 166.317 65.19 166.365 64.614C166.413 64.038 166.437 63.342 166.437 62.526V61.194H168.399ZM176.841 70.482V76.44H174.807V70.482H176.841ZM182.349 70.482V76.44H180.333V70.482H182.349ZM185.877 69.42V71.04H171.369V69.42H185.877ZM178.569 61.032C179.697 61.032 180.693 61.176 181.557 61.464C182.421 61.752 183.093 62.16 183.573 62.688C184.053 63.216 184.293 63.84 184.293 64.56C184.293 65.28 184.053 65.91 183.573 66.45C183.093 66.978 182.421 67.386 181.557 67.674C180.693 67.962 179.697 68.106 178.569 68.106C177.441 68.106 176.445 67.962 175.581 67.674C174.729 67.386 174.063 66.978 173.583 66.45C173.103 65.91 172.863 65.28 172.863 64.56C172.863 63.84 173.103 63.216 173.583 62.688C174.063 62.16 174.729 61.752 175.581 61.464C176.445 61.176 177.441 61.032 178.569 61.032ZM178.569 62.598C177.825 62.598 177.177 62.676 176.625 62.832C176.073 62.988 175.647 63.216 175.347 63.516C175.047 63.804 174.897 64.152 174.897 64.56C174.897 64.968 175.047 65.322 175.347 65.622C175.647 65.922 176.073 66.15 176.625 66.306C177.177 66.45 177.825 66.522 178.569 66.522C179.325 66.522 179.979 66.45 180.531 66.306C181.083 66.15 181.509 65.922 181.809 65.622C182.121 65.322 182.277 64.968 182.277 64.56C182.277 64.152 182.121 63.804 181.809 63.516C181.509 63.216 181.077 62.988 180.513 62.832C179.961 62.676 179.313 62.598 178.569 62.598ZM196.462 67.062V68.664H188.164V67.062H196.462ZM193.258 68.358V71.85H191.278V68.358H193.258ZM196.39 61.896V63.462H190.144V67.584H188.164V61.896H196.39ZM200.242 60.402V76.476H198.28V60.402H200.242ZM187.606 71.58C189.73 71.568 191.536 71.538 193.024 71.49C194.512 71.442 195.946 71.34 197.326 71.184L197.47 72.606C195.898 72.846 194.272 73.008 192.592 73.092C190.912 73.176 189.154 73.212 187.318 73.2L187.084 71.58H187.606ZM215.938 60.42V76.44H213.958V60.42H215.938ZM211.204 62.094C211.204 63.774 210.964 65.316 210.484 66.72C210.016 68.112 209.236 69.396 208.144 70.572C207.052 71.736 205.606 72.756 203.806 73.632L202.78 72.066C204.304 71.334 205.54 70.5 206.488 69.564C207.436 68.616 208.126 67.56 208.558 66.396C209.002 65.22 209.224 63.906 209.224 62.454V62.094H211.204ZM210.142 62.094V63.696H203.572V62.094H210.142ZM227.566 66.45V68.052H224.776V66.45H227.566ZM232.03 60.42V76.44H230.158V60.42H232.03ZM228.772 60.726V75.684H226.918V60.726H228.772ZM221.932 61.626C222.628 61.626 223.234 61.86 223.75 62.328C224.278 62.784 224.686 63.444 224.974 64.308C225.262 65.172 225.406 66.186 225.406 67.35C225.406 68.526 225.262 69.546 224.974 70.41C224.686 71.274 224.278 71.94 223.75 72.408C223.234 72.864 222.628 73.092 221.932 73.092C221.236 73.092 220.63 72.864 220.114 72.408C219.598 71.94 219.196 71.274 218.908 70.41C218.632 69.546 218.494 68.526 218.494 67.35C218.494 66.186 218.632 65.172 218.908 64.308C219.196 63.444 219.598 62.784 220.114 62.328C220.63 61.86 221.236 61.626 221.932 61.626ZM221.932 63.498C221.584 63.498 221.29 63.648 221.05 63.948C220.81 64.236 220.624 64.668 220.492 65.244C220.36 65.82 220.294 66.522 220.294 67.35C220.294 68.178 220.36 68.886 220.492 69.474C220.624 70.05 220.81 70.488 221.05 70.788C221.29 71.088 221.584 71.238 221.932 71.238C222.28 71.238 222.574 71.088 222.814 70.788C223.066 70.488 223.258 70.05 223.39 69.474C223.522 68.886 223.588 68.178 223.588 67.35C223.588 66.522 223.522 65.82 223.39 65.244C223.258 64.668 223.066 64.236 222.814 63.948C222.574 63.648 222.28 63.498 221.932 63.498ZM12.156 99.266V103.19H10.212V99.266H12.156ZM17.448 99.266V103.19H15.504V99.266H17.448ZM20.4 91.544V93.146H7.278V91.544H20.4ZM21.12 102.146V103.748H6.612V102.146H21.12ZM13.83 93.938C15.486 93.938 16.788 94.208 17.736 94.748C18.696 95.288 19.176 96.044 19.176 97.016C19.176 97.964 18.696 98.708 17.736 99.248C16.788 99.776 15.486 100.04 13.83 100.04C12.162 100.04 10.848 99.776 9.888 99.248C8.94 98.708 8.466 97.964 8.466 97.016C8.466 96.044 8.94 95.288 9.888 94.748C10.848 94.208 12.162 93.938 13.83 93.938ZM13.812 95.45C13.104 95.45 12.498 95.51 11.994 95.63C11.502 95.75 11.124 95.93 10.86 96.17C10.608 96.398 10.482 96.68 10.482 97.016C10.482 97.34 10.608 97.616 10.86 97.844C11.124 98.06 11.502 98.228 11.994 98.348C12.498 98.456 13.104 98.51 13.812 98.51C14.532 98.51 15.138 98.456 15.63 98.348C16.134 98.228 16.512 98.06 16.764 97.844C17.028 97.616 17.16 97.34 17.16 97.016C17.16 96.68 17.028 96.398 16.764 96.17C16.512 95.93 16.134 95.75 15.63 95.63C15.138 95.51 14.532 95.45 13.812 95.45ZM14.838 89.618V92.534H12.84V89.618H14.838ZM27.9604 96.566V99.59H25.9984V96.566H27.9604ZM33.0004 96.566V99.59H31.0204V96.566H33.0004ZM29.5084 89.6C31.3204 89.6 32.7304 89.84 33.7384 90.32C34.7464 90.788 35.2504 91.46 35.2504 92.336C35.2504 93.224 34.7464 93.908 33.7384 94.388C32.7304 94.856 31.3204 95.09 29.5084 95.09C27.6964 95.09 26.2864 94.856 25.2784 94.388C24.2704 93.908 23.7664 93.23 23.7664 92.354C23.7664 91.466 24.2704 90.788 25.2784 90.32C26.2864 89.84 27.6964 89.6 29.5084 89.6ZM29.5084 91.058C28.2964 91.058 27.3784 91.166 26.7544 91.382C26.1304 91.598 25.8184 91.916 25.8184 92.336C25.8184 92.768 26.1244 93.092 26.7364 93.308C27.3604 93.524 28.2784 93.632 29.4904 93.632C30.7144 93.632 31.6384 93.524 32.2624 93.308C32.8864 93.092 33.1984 92.768 33.1984 92.336C33.1984 91.916 32.8864 91.598 32.2624 91.382C31.6384 91.166 30.7204 91.058 29.5084 91.058ZM36.7444 95.846V97.412H22.2724V95.846H36.7444ZM34.9444 98.69V102.614H25.9264V104.234H24.0004V101.228H33.0004V100.184H23.9464V98.69H34.9444ZM35.3944 103.82V105.314H24.0004V103.82H35.3944ZM43.3688 91.04V92.156C43.3688 93.164 43.1948 94.112 42.8468 95C42.4988 95.888 41.9888 96.662 41.3168 97.322C40.6448 97.982 39.8348 98.474 38.8868 98.798L37.8788 97.25C38.6948 96.974 39.3908 96.572 39.9668 96.044C40.5548 95.516 40.9988 94.916 41.2988 94.244C41.5988 93.572 41.7488 92.876 41.7488 92.156V91.04H43.3688ZM43.7468 91.04V92.156C43.7468 92.816 43.8908 93.464 44.1788 94.1C44.4668 94.724 44.8868 95.282 45.4388 95.774C46.0028 96.266 46.6868 96.65 47.4908 96.926L46.5008 98.474C45.5768 98.162 44.7908 97.688 44.1428 97.052C43.4948 96.416 43.0028 95.678 42.6668 94.838C42.3428 93.986 42.1808 93.092 42.1808 92.156V91.04H43.7468ZM49.8128 93.38V95H46.5728V93.38H49.8128ZM47.0408 90.392V91.976H38.4368V90.392H47.0408ZM51.2168 99.752V105.458H49.2368V101.354H40.3988V99.752H51.2168ZM51.2168 89.438V98.978H49.2368V89.438H51.2168ZM66.8233 89.438V101.012H64.8433V89.438H66.8233ZM67.2553 103.55V105.134H56.3113V103.55H67.2553ZM58.2733 99.86V104.162H56.3113V99.86H58.2733ZM58.1653 90.482C58.9573 90.482 59.6773 90.656 60.3253 91.004C60.9853 91.34 61.5013 91.82 61.8733 92.444C62.2453 93.056 62.4313 93.74 62.4313 94.496C62.4313 95.264 62.2453 95.954 61.8733 96.566C61.5013 97.178 60.9853 97.658 60.3253 98.006C59.6773 98.354 58.9573 98.528 58.1653 98.528C57.3613 98.528 56.6293 98.354 55.9693 98.006C55.3213 97.658 54.8053 97.178 54.4213 96.566C54.0493 95.954 53.8633 95.264 53.8633 94.496C53.8633 93.74 54.0493 93.056 54.4213 92.444C54.8053 91.82 55.3213 91.34 55.9693 91.004C56.6293 90.656 57.3613 90.482 58.1653 90.482ZM58.1473 92.192C57.7033 92.192 57.3013 92.288 56.9413 92.48C56.5813 92.672 56.2993 92.942 56.0953 93.29C55.8913 93.638 55.7893 94.046 55.7893 94.514C55.7893 94.97 55.8913 95.372 56.0953 95.72C56.2993 96.056 56.5813 96.32 56.9413 96.512C57.3013 96.704 57.7033 96.8 58.1473 96.8C58.5913 96.8 58.9933 96.704 59.3533 96.512C59.7133 96.32 59.9953 96.056 60.1993 95.72C60.4033 95.372 60.5053 94.97 60.5053 94.514C60.5053 94.046 60.4033 93.638 60.1993 93.29C59.9953 92.942 59.7133 92.672 59.3533 92.48C58.9933 92.288 58.5913 92.192 58.1473 92.192ZM85.4081 92.966V94.532H82.3481V92.966H85.4081ZM85.3721 96.116V97.682H82.3121V96.116H85.3721ZM82.2221 90.878V92.444H73.3481V90.878H82.2221ZM77.8481 93.038C78.5681 93.038 79.2101 93.158 79.7741 93.398C80.3381 93.638 80.7761 93.98 81.0881 94.424C81.4001 94.868 81.5561 95.372 81.5561 95.936C81.5561 96.5 81.4001 97.004 81.0881 97.448C80.7761 97.892 80.3381 98.234 79.7741 98.474C79.2101 98.714 78.5681 98.834 77.8481 98.834C77.1401 98.834 76.5041 98.714 75.9401 98.474C75.3761 98.234 74.9381 97.892 74.6261 97.448C74.3141 97.004 74.1581 96.5 74.1581 95.936C74.1581 95.372 74.3141 94.868 74.6261 94.424C74.9381 93.98 75.3761 93.638 75.9401 93.398C76.5041 93.158 77.1401 93.038 77.8481 93.038ZM77.8661 94.496C77.3021 94.496 76.8521 94.628 76.5161 94.892C76.1801 95.144 76.0121 95.492 76.0121 95.936C76.0121 96.38 76.1801 96.734 76.5161 96.998C76.8521 97.262 77.3021 97.394 77.8661 97.394C78.4181 97.394 78.8621 97.262 79.1981 96.998C79.5461 96.734 79.7201 96.38 79.7201 95.936C79.7201 95.492 79.5461 95.144 79.1981 94.892C78.8621 94.628 78.4181 94.496 77.8661 94.496ZM78.8741 89.276V91.922H76.8761V89.276H78.8741ZM86.6141 89.438V98.924H84.6341V89.438H86.6141ZM77.9921 99.572V100.922H84.6701V99.572H86.6141V105.26H76.0481V99.572H77.9921ZM77.9921 103.73H84.6701V102.416H77.9921V103.73ZM101.177 93.074V94.676H97.0545V93.074H101.177ZM93.3825 90.122C94.1745 90.122 94.8885 90.284 95.5245 90.608C96.1605 90.932 96.6585 91.382 97.0185 91.958C97.3785 92.522 97.5585 93.17 97.5585 93.902C97.5585 94.634 97.3785 95.288 97.0185 95.864C96.6585 96.428 96.1605 96.872 95.5245 97.196C94.8885 97.52 94.1745 97.682 93.3825 97.682C92.5905 97.682 91.8705 97.52 91.2225 97.196C90.5865 96.872 90.0885 96.428 89.7285 95.864C89.3685 95.288 89.1885 94.634 89.1885 93.902C89.1885 93.17 89.3685 92.522 89.7285 91.958C90.0885 91.382 90.5865 90.932 91.2225 90.608C91.8705 90.284 92.5905 90.122 93.3825 90.122ZM93.3825 91.76C92.9385 91.76 92.5425 91.85 92.1945 92.03C91.8465 92.198 91.5705 92.444 91.3665 92.768C91.1745 93.092 91.0785 93.464 91.0785 93.884C91.0785 94.316 91.1745 94.694 91.3665 95.018C91.5705 95.342 91.8465 95.594 92.1945 95.774C92.5425 95.942 92.9385 96.026 93.3825 96.026C93.8265 96.026 94.2225 95.942 94.5705 95.774C94.9185 95.594 95.1885 95.342 95.3805 95.018C95.5725 94.694 95.6685 94.316 95.6685 93.884C95.6685 93.464 95.5725 93.092 95.3805 92.768C95.1885 92.444 94.9185 92.198 94.5705 92.03C94.2225 91.85 93.8265 91.76 93.3825 91.76ZM102.293 89.438V98.024H100.313V89.438H102.293ZM93.7785 98.78V100.472H100.331V98.78H102.293V105.26H91.7985V98.78H93.7785ZM93.7785 103.676H100.331V102.002H93.7785V103.676ZM117.863 89.402V105.476H115.865V89.402H117.863ZM109.295 90.572C110.099 90.572 110.813 90.806 111.437 91.274C112.073 91.73 112.565 92.39 112.913 93.254C113.273 94.106 113.453 95.102 113.453 96.242C113.453 97.382 113.273 98.384 112.913 99.248C112.565 100.112 112.073 100.778 111.437 101.246C110.813 101.702 110.099 101.93 109.295 101.93C108.491 101.93 107.771 101.702 107.135 101.246C106.511 100.778 106.019 100.112 105.659 99.248C105.311 98.384 105.137 97.382 105.137 96.242C105.137 95.102 105.311 94.106 105.659 93.254C106.019 92.39 106.511 91.73 107.135 91.274C107.771 90.806 108.491 90.572 109.295 90.572ZM109.295 92.372C108.851 92.372 108.455 92.528 108.107 92.84C107.771 93.14 107.507 93.584 107.315 94.172C107.135 94.748 107.045 95.438 107.045 96.242C107.045 97.046 107.135 97.742 107.315 98.33C107.507 98.918 107.771 99.368 108.107 99.68C108.455 99.992 108.851 100.148 109.295 100.148C109.739 100.148 110.129 99.992 110.465 99.68C110.813 99.368 111.077 98.918 111.257 98.33C111.449 97.742 111.545 97.046 111.545 96.242C111.545 95.438 111.449 94.748 111.257 94.172C111.077 93.584 110.813 93.14 110.465 92.84C110.129 92.528 109.739 92.372 109.295 92.372ZM136.844 89.402V105.44H134.846V89.402H136.844ZM139.202 95.684V97.322H136.34V95.684H139.202ZM132.632 91.094C132.632 93.59 132.062 95.81 130.922 97.754C129.782 99.686 127.952 101.288 125.432 102.56L124.316 101.066C125.756 100.334 126.944 99.494 127.88 98.546C128.828 97.598 129.53 96.536 129.986 95.36C130.454 94.184 130.688 92.876 130.688 91.436V91.094H132.632ZM131.714 91.094V92.696H125.162V91.094H131.714ZM152.918 93.596V95.18H141.938V93.596H152.918ZM143.9 89.726V94.316H141.938V89.726H143.9ZM154.538 96.728V98.33H140.066V96.728H154.538ZM147.266 99.518C148.994 99.518 150.344 99.776 151.316 100.292C152.3 100.796 152.792 101.516 152.792 102.452C152.792 103.388 152.3 104.114 151.316 104.63C150.344 105.158 148.994 105.422 147.266 105.422C145.538 105.422 144.182 105.158 143.198 104.63C142.214 104.114 141.722 103.388 141.722 102.452C141.722 101.516 142.208 100.796 143.18 100.292C144.164 99.776 145.526 99.518 147.266 99.518ZM147.266 101.03C146.114 101.03 145.232 101.15 144.62 101.39C144.02 101.63 143.72 101.984 143.72 102.452C143.72 102.92 144.02 103.274 144.62 103.514C145.232 103.754 146.114 103.874 147.266 103.874C148.418 103.874 149.294 103.754 149.894 103.514C150.494 103.274 150.794 102.92 150.794 102.452C150.794 101.984 150.494 101.63 149.894 101.39C149.294 101.15 148.418 101.03 147.266 101.03ZM168.237 89.438V98.78H166.257V89.438H168.237ZM170.469 93.362V95H167.427V93.362H170.469ZM159.921 99.428V100.832H166.293V99.428H168.237V105.26H157.959V99.428H159.921ZM159.921 103.694H166.293V102.326H159.921V103.694ZM165.159 90.914V92.48H155.727V90.914H165.159ZM160.461 93.02C161.217 93.02 161.889 93.14 162.477 93.38C163.065 93.608 163.521 93.938 163.845 94.37C164.181 94.802 164.349 95.3 164.349 95.864C164.349 96.416 164.181 96.908 163.845 97.34C163.521 97.772 163.065 98.108 162.477 98.348C161.889 98.576 161.217 98.69 160.461 98.69C159.693 98.69 159.009 98.576 158.409 98.348C157.821 98.108 157.365 97.772 157.041 97.34C156.717 96.908 156.555 96.416 156.555 95.864C156.555 95.3 156.717 94.802 157.041 94.37C157.365 93.938 157.821 93.608 158.409 93.38C159.009 93.14 159.693 93.02 160.461 93.02ZM160.443 94.478C159.843 94.478 159.357 94.604 158.985 94.856C158.625 95.096 158.445 95.426 158.445 95.846C158.445 96.278 158.625 96.62 158.985 96.872C159.357 97.112 159.843 97.232 160.443 97.232C161.043 97.232 161.523 97.112 161.883 96.872C162.255 96.62 162.441 96.278 162.441 95.846C162.441 95.426 162.255 95.096 161.883 94.856C161.523 94.604 161.043 94.478 160.443 94.478ZM161.433 89.294V91.796H159.453V89.294H161.433ZM184.635 89.42V105.44H182.673V89.42H184.635ZM174.231 90.968V100.904H172.269V90.968H174.231ZM173.655 99.734C176.403 99.734 178.941 99.5 181.269 99.032L181.503 100.688C180.195 100.952 178.893 101.144 177.597 101.264C176.301 101.372 174.987 101.426 173.655 101.426H172.269V99.734H173.655ZM199.504 89.402V105.476H197.506V89.402H199.504ZM201.934 95.486V97.124H199.054V95.486H201.934ZM188.992 99.914C190.528 99.914 191.842 99.878 192.934 99.806C194.038 99.734 195.148 99.596 196.264 99.392L196.462 101.048C195.334 101.252 194.206 101.39 193.078 101.462C191.962 101.534 190.6 101.57 188.992 101.57H187.678V99.914H188.992ZM195.148 90.95V92.534H189.658V100.706H187.678V90.95H195.148ZM204.166 102.182C204.49 102.182 204.754 102.29 204.958 102.506C205.162 102.71 205.264 102.974 205.264 103.298C205.264 103.634 205.162 103.904 204.958 104.108C204.754 104.324 204.49 104.432 204.166 104.432C203.83 104.432 203.554 104.324 203.338 104.108C203.134 103.904 203.032 103.634 203.032 103.298C203.032 102.974 203.134 102.71 203.338 102.506C203.554 102.29 203.83 102.182 204.166 102.182Z"
    fill="black"
  />
  <mask id="path-2-inside-1_2302_6741" fill="white">
    <path d="M0 30C0 27.7909 1.79086 26 4 26H188V54H4C1.79086 54 0 52.2091 0 50V30Z" />
  </mask>
  <path d="M0 30C0 27.7909 1.79086 26 4 26H188V54H4C1.79086 54 0 52.2091 0 50V30Z" fill="#FF5E00" fill-opacity="0.05" />
  <path
    d="M-1 30C-1 27.2386 1.23858 25 4 25H188V27H4C2.34315 27 1 28.3431 1 30H-1ZM188 55H4C1.23858 55 -1 52.7614 -1 50H1C1 51.6569 2.34315 53 4 53H188V55ZM4 55C1.23858 55 -1 52.7614 -1 50V30C-1 27.2386 1.23858 25 4 25V27C2.34315 27 1 28.3431 1 30V50C1 51.6569 2.34315 53 4 53V55ZM188 26V54V26Z"
    fill="#FF5E00"
    fill-opacity="0.2"
    mask="url(#path-2-inside-1_2302_6741)"
  />
  <mask id="path-4-inside-2_2302_6741" fill="white">
    <path d="M0 88C0 85.7909 1.79086 84 4 84H122V112H4C1.79086 112 0 110.209 0 108V88Z" />
  </mask>
  <path
    d="M0 88C0 85.7909 1.79086 84 4 84H122V112H4C1.79086 112 0 110.209 0 108V88Z"
    fill="#616161"
    fill-opacity="0.05"
  />
  <path
    d="M-1 88C-1 85.2386 1.23858 83 4 83H122V85H4C2.34315 85 1 86.3431 1 88H-1ZM122 113H4C1.23858 113 -1 110.761 -1 108H1C1 109.657 2.34315 111 4 111H122V113ZM4 113C1.23858 113 -1 110.761 -1 108V88C-1 85.2386 1.23858 83 4 83V85C2.34315 85 1 86.3431 1 88V108C1 109.657 2.34315 111 4 111V113ZM122 84V112V84Z"
    fill="#616161"
    fill-opacity="0.2"
    mask="url(#path-4-inside-2_2302_6741)"
  />
  <path d="M121.2 111L121.2 61" stroke="#616161" stroke-width="2.5" stroke-linecap="round" />
  <rect x="120.357" y="58.3565" width="63.2869" height="26.2869" rx="1.78266" fill="#616161" />
  <rect
    x="120.357"
    y="58.3565"
    width="63.2869"
    height="26.2869"
    rx="1.78266"
    stroke="#616161"
    stroke-width="0.713062"
  />
  <path
    d="M129.394 66.642H131.086V78.108H129.394V66.642ZM127.81 69.612H133.102V71.088H127.81V69.612ZM138.097 78.162C137.305 78.162 136.597 77.982 135.973 77.622C135.361 77.25 134.881 76.74 134.533 76.092C134.185 75.444 134.011 74.712 134.011 73.896C134.011 73.068 134.185 72.33 134.533 71.682C134.881 71.034 135.361 70.53 135.973 70.17C136.597 69.798 137.305 69.612 138.097 69.612C139.141 69.612 139.933 69.864 140.473 70.368C141.013 70.872 141.385 71.37 141.589 71.862L141.607 71.916C141.811 72.396 141.925 72.876 141.949 73.356C141.985 73.824 141.985 74.208 141.949 74.508V74.58H135.721C135.793 74.988 135.943 75.354 136.171 75.678C136.399 76.002 136.681 76.254 137.017 76.434C137.353 76.602 137.713 76.686 138.097 76.686C138.721 76.686 139.207 76.566 139.555 76.326C139.915 76.086 140.173 75.84 140.329 75.588L140.365 75.534L141.715 76.182C141.475 76.722 141.043 77.19 140.419 77.586C139.807 77.97 139.033 78.162 138.097 78.162ZM140.329 73.194C140.269 72.774 140.155 72.408 139.987 72.096C139.819 71.784 139.573 71.538 139.249 71.358C138.937 71.178 138.553 71.088 138.097 71.088C137.497 71.088 136.975 71.286 136.531 71.682C136.099 72.066 135.829 72.57 135.721 73.194H140.329ZM147.404 78.198C146.636 78.198 145.946 78.018 145.334 77.658C144.722 77.286 144.242 76.776 143.894 76.128C143.546 75.48 143.372 74.742 143.372 73.914C143.372 73.098 143.546 72.366 143.894 71.718C144.242 71.07 144.722 70.56 145.334 70.188C145.946 69.816 146.636 69.63 147.404 69.63C147.884 69.63 148.358 69.756 148.826 70.008C149.306 70.26 149.714 70.632 150.05 71.124L149.942 71.196V69.612H151.652V78.108H149.942V76.632L150.05 76.704C149.822 77.04 149.558 77.322 149.258 77.55C148.97 77.778 148.67 77.94 148.358 78.036C148.046 78.144 147.728 78.198 147.404 78.198ZM147.494 76.722C147.926 76.722 148.328 76.602 148.7 76.362C149.084 76.122 149.39 75.786 149.618 75.354C149.846 74.922 149.96 74.442 149.96 73.914C149.96 73.398 149.846 72.924 149.618 72.492C149.39 72.06 149.084 71.724 148.7 71.484C148.328 71.232 147.926 71.106 147.494 71.106C147.014 71.106 146.594 71.226 146.234 71.466C145.874 71.694 145.592 72.024 145.388 72.456C145.184 72.876 145.082 73.362 145.082 73.914C145.082 74.466 145.184 74.958 145.388 75.39C145.592 75.81 145.874 76.14 146.234 76.38C146.594 76.608 147.014 76.722 147.494 76.722ZM164.42 73.158C164.42 72.558 164.258 72.072 163.934 71.7C163.622 71.316 163.214 71.124 162.71 71.124C162.326 71.124 161.99 71.208 161.702 71.376C161.414 71.544 161.186 71.778 161.018 72.078C160.85 72.366 160.766 72.69 160.766 73.05V78.108H159.056V73.158C159.056 72.558 158.9 72.072 158.588 71.7C158.288 71.316 157.886 71.124 157.382 71.124C157.01 71.124 156.674 71.22 156.374 71.412C156.074 71.604 155.84 71.868 155.672 72.204C155.504 72.54 155.42 72.906 155.42 73.302V78.108H153.71V69.612H155.42V71.124L155.24 71.07C155.492 70.65 155.822 70.308 156.23 70.044C156.638 69.768 157.064 69.63 157.508 69.63C158.024 69.63 158.516 69.774 158.984 70.062C159.452 70.35 159.806 70.722 160.046 71.178C160.346 70.722 160.748 70.35 161.252 70.062C161.756 69.774 162.272 69.63 162.8 69.63C163.448 69.63 164.024 69.78 164.528 70.08C165.032 70.368 165.422 70.776 165.698 71.304C165.986 71.82 166.13 72.408 166.13 73.068V78.108H164.42V73.158ZM168.196 76.542C168.496 76.254 168.778 75.996 169.042 75.768C169.306 75.528 169.594 75.264 169.906 74.976C170.914 74.064 171.718 73.302 172.318 72.69C172.93 72.078 173.446 71.454 173.866 70.818C174.286 70.17 174.496 69.57 174.496 69.018C174.496 68.502 174.394 68.046 174.19 67.65C173.998 67.254 173.722 66.942 173.362 66.714C173.002 66.486 172.588 66.372 172.12 66.372C171.592 66.372 171.088 66.552 170.608 66.912C170.14 67.26 169.78 67.704 169.528 68.244L168.016 67.596C168.364 66.78 168.922 66.114 169.69 65.598C170.47 65.082 171.28 64.824 172.12 64.824C172.924 64.824 173.632 65.004 174.244 65.364C174.856 65.712 175.336 66.204 175.684 66.84C176.032 67.476 176.206 68.202 176.206 69.018C176.206 69.81 175.96 70.614 175.468 71.43C174.976 72.234 174.388 72.984 173.704 73.68C173.02 74.364 172.132 75.186 171.04 76.146C170.416 76.686 169.852 77.19 169.348 77.658L168.196 76.542ZM168.196 76.542H176.422V78.036H168.376L168.196 76.542Z"
    fill="white"
  />
  <path d="M188.2 53L188.2 3" stroke="#FF5E00" stroke-width="2.5" stroke-linecap="round" />
  <rect x="187.357" y="0.356531" width="60.2869" height="26.2869" rx="1.78266" fill="#FF5E00" />
  <rect
    x="187.357"
    y="0.356531"
    width="60.2869"
    height="26.2869"
    rx="1.78266"
    stroke="#FF5E00"
    stroke-width="0.713062"
  />
  <path
    d="M196.394 8.642H198.086V20.108H196.394V8.642ZM194.81 11.612H200.102V13.088H194.81V11.612ZM205.097 20.162C204.305 20.162 203.597 19.982 202.973 19.622C202.361 19.25 201.881 18.74 201.533 18.092C201.185 17.444 201.011 16.712 201.011 15.896C201.011 15.068 201.185 14.33 201.533 13.682C201.881 13.034 202.361 12.53 202.973 12.17C203.597 11.798 204.305 11.612 205.097 11.612C206.141 11.612 206.933 11.864 207.473 12.368C208.013 12.872 208.385 13.37 208.589 13.862L208.607 13.916C208.811 14.396 208.925 14.876 208.949 15.356C208.985 15.824 208.985 16.208 208.949 16.508V16.58H202.721C202.793 16.988 202.943 17.354 203.171 17.678C203.399 18.002 203.681 18.254 204.017 18.434C204.353 18.602 204.713 18.686 205.097 18.686C205.721 18.686 206.207 18.566 206.555 18.326C206.915 18.086 207.173 17.84 207.329 17.588L207.365 17.534L208.715 18.182C208.475 18.722 208.043 19.19 207.419 19.586C206.807 19.97 206.033 20.162 205.097 20.162ZM207.329 15.194C207.269 14.774 207.155 14.408 206.987 14.096C206.819 13.784 206.573 13.538 206.249 13.358C205.937 13.178 205.553 13.088 205.097 13.088C204.497 13.088 203.975 13.286 203.531 13.682C203.099 14.066 202.829 14.57 202.721 15.194H207.329ZM214.404 20.198C213.636 20.198 212.946 20.018 212.334 19.658C211.722 19.286 211.242 18.776 210.894 18.128C210.546 17.48 210.372 16.742 210.372 15.914C210.372 15.098 210.546 14.366 210.894 13.718C211.242 13.07 211.722 12.56 212.334 12.188C212.946 11.816 213.636 11.63 214.404 11.63C214.884 11.63 215.358 11.756 215.826 12.008C216.306 12.26 216.714 12.632 217.05 13.124L216.942 13.196V11.612H218.652V20.108H216.942V18.632L217.05 18.704C216.822 19.04 216.558 19.322 216.258 19.55C215.97 19.778 215.67 19.94 215.358 20.036C215.046 20.144 214.728 20.198 214.404 20.198ZM214.494 18.722C214.926 18.722 215.328 18.602 215.7 18.362C216.084 18.122 216.39 17.786 216.618 17.354C216.846 16.922 216.96 16.442 216.96 15.914C216.96 15.398 216.846 14.924 216.618 14.492C216.39 14.06 216.084 13.724 215.7 13.484C215.328 13.232 214.926 13.106 214.494 13.106C214.014 13.106 213.594 13.226 213.234 13.466C212.874 13.694 212.592 14.024 212.388 14.456C212.184 14.876 212.082 15.362 212.082 15.914C212.082 16.466 212.184 16.958 212.388 17.39C212.592 17.81 212.874 18.14 213.234 18.38C213.594 18.608 214.014 18.722 214.494 18.722ZM231.42 15.158C231.42 14.558 231.258 14.072 230.934 13.7C230.622 13.316 230.214 13.124 229.71 13.124C229.326 13.124 228.99 13.208 228.702 13.376C228.414 13.544 228.186 13.778 228.018 14.078C227.85 14.366 227.766 14.69 227.766 15.05V20.108H226.056V15.158C226.056 14.558 225.9 14.072 225.588 13.7C225.288 13.316 224.886 13.124 224.382 13.124C224.01 13.124 223.674 13.22 223.374 13.412C223.074 13.604 222.84 13.868 222.672 14.204C222.504 14.54 222.42 14.906 222.42 15.302V20.108H220.71V11.612H222.42V13.124L222.24 13.07C222.492 12.65 222.822 12.308 223.23 12.044C223.638 11.768 224.064 11.63 224.508 11.63C225.024 11.63 225.516 11.774 225.984 12.062C226.452 12.35 226.806 12.722 227.046 13.178C227.346 12.722 227.748 12.35 228.252 12.062C228.756 11.774 229.272 11.63 229.8 11.63C230.448 11.63 231.024 11.78 231.528 12.08C232.032 12.368 232.422 12.776 232.698 13.304C232.986 13.82 233.13 14.408 233.13 15.068V20.108H231.42V15.158ZM239.552 20.036L237.842 20.018V8.84L235.646 10.154L234.872 8.75L237.86 6.986H239.552V20.036Z"
    fill="white"
  />
</svg>
