<svg viewBox="0 0 20 20" xmlns="http://www.w3.org/2000/svg">
  <g id="Property 1=light-bulb">
    <path
      id="Vector"
      d="M16.1109 6.1443C16.1109 9.72153 13.3331 10.2771 13.3331 13.611C13.3331 15.3321 11.5981 15.4771 10.2776 15.4771C9.13701 15.4771 6.61867 15.0443 6.61867 13.6099C6.61867 10.2776 3.88867 9.72208 3.88867 6.1443C3.88867 2.79375 6.82478 0.0776367 10.0459 0.0776367C13.2681 0.0776367 16.1109 2.79375 16.1109 6.1443Z"
      fill="#FFD983"
    />
    <path
      id="Vector_2"
      d="M12.3146 18.0556C12.3146 18.5156 11.0735 19.4445 9.99957 19.4445C8.92568 19.4445 7.68457 18.5156 7.68457 18.0556C7.68457 17.5956 8.92513 17.7778 9.99957 17.7778C11.074 17.7778 12.3146 17.5956 12.3146 18.0556Z"
      fill="#CCD6DD"
    />
    <path
      id="Vector_3"
      d="M12.6154 5.71836C12.5112 5.61421 12.3699 5.5557 12.2226 5.5557C12.0753 5.5557 11.934 5.61421 11.8298 5.71836L10.0004 7.5478L8.17091 5.71836C8.11933 5.66678 8.05809 5.62586 7.9907 5.59795C7.9233 5.57003 7.85107 5.55566 7.77813 5.55566C7.70518 5.55566 7.63295 5.57003 7.56556 5.59795C7.49817 5.62586 7.43693 5.66678 7.38535 5.71836C7.33377 5.76994 7.29285 5.83117 7.26494 5.89857C7.23702 5.96596 7.22266 6.03819 7.22266 6.11114C7.22266 6.18408 7.23702 6.25631 7.26494 6.32371C7.29285 6.3911 7.33377 6.45233 7.38535 6.50391L9.44479 8.56336V14.4445C9.44479 14.5918 9.50333 14.7331 9.60751 14.8373C9.7117 14.9415 9.85301 15 10.0004 15C10.1477 15 10.289 14.9415 10.3932 14.8373C10.4974 14.7331 10.5559 14.5918 10.5559 14.4445V8.56336L12.6154 6.50391C12.7195 6.39973 12.778 6.25845 12.778 6.11114C12.778 5.96382 12.7195 5.82254 12.6154 5.71836Z"
      fill="#FFCC4D"
    />
    <path
      id="Vector_4"
      d="M13.3337 17.222C13.3337 17.5167 13.2166 17.7993 13.0082 18.0077C12.7998 18.2161 12.5172 18.3331 12.2225 18.3331H7.7781C7.48342 18.3331 7.2008 18.2161 6.99243 18.0077C6.78406 17.7993 6.66699 17.5167 6.66699 17.222V13.8887H13.3337V17.222Z"
      fill="#99AAB5"
    />
    <path
      id="Vector_5"
      d="M6.6658 17.7776C6.52668 17.7771 6.39282 17.7244 6.29068 17.6299C6.18854 17.5355 6.12555 17.4061 6.11417 17.2675C6.10279 17.1288 6.14384 16.9909 6.22922 16.8811C6.31459 16.7713 6.43807 16.6974 6.57525 16.6743L13.2419 15.5631C13.3139 15.5508 13.3876 15.5528 13.4588 15.5691C13.53 15.5854 13.5973 15.6156 13.6567 15.6581C13.7161 15.7006 13.7665 15.7544 13.805 15.8165C13.8435 15.8786 13.8692 15.9477 13.8808 16.0198C13.9049 16.1651 13.8703 16.314 13.7847 16.4338C13.6991 16.5536 13.5694 16.6345 13.4241 16.6587L6.75747 17.7698C6.72718 17.7749 6.69652 17.7775 6.6658 17.7776ZM6.6658 15.5554C6.52668 15.5548 6.39282 15.5022 6.29068 15.4077C6.18854 15.3132 6.12555 15.1839 6.11417 15.0453C6.10279 14.9066 6.14384 14.7687 6.22922 14.6589C6.31459 14.549 6.43807 14.4752 6.57525 14.452L13.2419 13.3409C13.3139 13.3286 13.3876 13.3307 13.4588 13.347C13.5299 13.3633 13.5971 13.3936 13.6566 13.4361C13.716 13.4785 13.7664 13.5323 13.8048 13.5944C13.8433 13.6564 13.8692 13.7255 13.8808 13.7976C13.9049 13.9429 13.8703 14.0918 13.7847 14.2115C13.6991 14.3313 13.5694 14.4122 13.4241 14.4365L6.75747 15.5476C6.72718 15.5527 6.69652 15.5553 6.6658 15.5554Z"
      fill="#CCD6DD"
    />
  </g>
</svg>
