<svg viewBox="0 0 20 20" xmlns="http://www.w3.org/2000/svg">
  <path
    d="M7.17094 17.0834C7.01761 18.3107 5.89816 18.7501 4.67094 18.7501C3.44372 18.7501 2.57316 17.7551 2.7265 16.5279L3.28205 11.5279C3.43539 10.3007 4.55483 9.30566 5.78205 9.30566C7.00928 9.30566 9.37539 9.30566 7.7265 11.5279C6.07761 13.7501 7.17094 17.0834 7.17094 17.0834Z"
    fill="#BE1931"
  />
  <path
    d="M19.9028 8.19444C19.9028 12.0289 19.045 15.1389 17.9861 15.1389C16.9278 15.1389 6.625 12.0289 6.625 8.19444C6.625 4.36 16.9278 1.25 17.9861 1.25C19.045 1.25 19.9028 4.35944 19.9028 8.19444Z"
    fill="#CCD6DD"
  />
  <path
    d="M17.986 15.1389C19.0445 15.1389 19.9027 12.0298 19.9027 8.19444C19.9027 4.35913 19.0445 1.25 17.986 1.25C16.9275 1.25 16.0693 4.35913 16.0693 8.19444C16.0693 12.0298 16.9275 15.1389 17.986 15.1389Z"
    fill="#66757F"
  />
  <path
    d="M9.95877 12.0834L2.18099 11.5279C-0.596788 11.5279 -0.596788 4.86122 2.18099 4.86122L9.95877 4.30566C8.2921 5.97233 8.2921 10.4168 9.95877 12.0834Z"
    fill="#DD2E44"
  />
  <path
    d="M17.4027 10.6099C17.8629 10.6099 18.236 9.52844 18.236 8.19436C18.236 6.86029 17.8629 5.77881 17.4027 5.77881C16.9424 5.77881 16.5693 6.86029 16.5693 8.19436C16.5693 9.52844 16.9424 10.6099 17.4027 10.6099Z"
    fill="#99AAB5"
  />
</svg>
