<svg viewBox="0 0 20 20" xmlns="http://www.w3.org/2000/svg">
  <g id="Property 1=twemoji--pushpin" clip-path="url(#clip0_8_1524)">
    <path
      id="Vector"
      d="M13.1394 12.9429L7.05664 6.86014L12.2711 2.51514L17.485 7.72903L13.1394 12.9429Z"
      fill="#BE1931"
    />
    <path
      id="Vector_2"
      d="M19.2219 7.72912C18.9939 7.95749 18.723 8.13866 18.4249 8.26227C18.1268 8.38588 17.8072 8.4495 17.4844 8.4495C17.1617 8.4495 16.8421 8.38588 16.544 8.26227C16.2458 8.13866 15.975 7.95749 15.7469 7.72912L12.2708 4.25357C11.8279 3.78893 11.5843 3.16952 11.592 2.52767C11.5996 1.88582 11.858 1.2724 12.3119 0.818476C12.7657 0.364547 13.3791 0.106093 14.0209 0.0983248C14.6628 0.0905568 15.2822 0.334091 15.7469 0.776902L19.2219 4.25357C19.4502 4.48175 19.6313 4.75267 19.7548 5.05084C19.8783 5.34901 19.9419 5.6686 19.9419 5.99135C19.9419 6.3141 19.8783 6.63368 19.7548 6.93185C19.6313 7.23003 19.4502 7.50094 19.2219 7.72912Z"
      fill="#DD2E44"
    />
    <path
      id="Vector_3"
      d="M7.77804 9.90186C7.77804 9.90186 -0.329184 19.4607 0.104705 19.8963C0.538594 20.3319 10.0986 12.2224 10.0986 12.2224L7.77804 9.90186Z"
      fill="#99AAB5"
    />
    <path
      id="Vector_4"
      d="M14.0083 15.5503C13.7801 15.7788 13.5091 15.96 13.2108 16.0836C12.9125 16.2072 12.5928 16.2709 12.27 16.2709C11.9471 16.2709 11.6274 16.2072 11.3291 16.0836C11.0308 15.96 10.7598 15.7788 10.5316 15.5503L4.4494 9.467C4.00131 9.00335 3.75333 8.38221 3.75888 7.73745C3.76444 7.09268 4.02309 6.47591 4.4791 6.02004C4.9351 5.56418 5.55196 5.30573 6.19673 5.30038C6.8415 5.29503 7.46255 5.54321 7.92606 5.99145L14.0083 12.0742C14.2366 12.3025 14.4176 12.5734 14.5412 12.8716C14.6647 13.1699 14.7283 13.4895 14.7283 13.8123C14.7283 14.1351 14.6647 14.4547 14.5412 14.7529C14.4176 15.0511 14.2366 15.3221 14.0083 15.5503Z"
      fill="#DD2E44"
    />
  </g>
</svg>
