<svg viewBox="0 0 20 20" xmlns="http://www.w3.org/2000/svg">
  <g id="Property 1=red-exclamation-mark">
    <path
      id="Vector"
      d="M9.99967 19.4447C10.9201 19.4447 11.6663 18.6985 11.6663 17.778C11.6663 16.8575 10.9201 16.1113 9.99967 16.1113C9.0792 16.1113 8.33301 16.8575 8.33301 17.778C8.33301 18.6985 9.0792 19.4447 9.99967 19.4447Z"
      fill="#BE1931"
    />
    <path
      id="Vector_2"
      d="M11.6663 13.3336C11.6663 13.7756 11.4907 14.1995 11.1782 14.5121C10.8656 14.8246 10.4417 15.0002 9.99967 15.0002C9.55765 15.0002 9.13372 14.8246 8.82116 14.5121C8.5086 14.1995 8.33301 13.7756 8.33301 13.3336V2.77799C8.33301 2.33597 8.5086 1.91204 8.82116 1.59948C9.13372 1.28692 9.55765 1.11133 9.99967 1.11133C10.4417 1.11133 10.8656 1.28692 11.1782 1.59948C11.4907 1.91204 11.6663 2.33597 11.6663 2.77799V13.3336Z"
      fill="#BE1931"
    />
  </g>
</svg>
