<svg width="335" height="177" viewBox="0 0 335 177" fill="none" xmlns="http://www.w3.org/2000/svg">
  <rect x="68" y="53" width="79" height="34" rx="4" fill="#ECF2FD" />
  <path
    d="M78.119 72.374C78.3963 72.9113 78.7213 73.3187 79.094 73.596C79.4753 73.8733 79.8783 74.012 80.303 74.012C80.9097 74.0207 81.382 73.8907 81.72 73.622C82.058 73.3447 82.227 72.972 82.227 72.504C82.227 72.2007 82.136 71.945 81.954 71.737C81.7807 71.529 81.5597 71.3643 81.291 71.243C81.031 71.113 80.667 70.9613 80.199 70.788C79.601 70.5713 79.1157 70.3633 78.743 70.164C78.3703 69.9647 78.054 69.683 77.794 69.319C77.534 68.955 77.404 68.487 77.404 67.915C77.404 67.395 77.534 66.9487 77.794 66.576C78.0627 66.1947 78.4267 65.9043 78.886 65.705C79.354 65.497 79.887 65.3973 80.485 65.406C80.9097 65.4147 81.3127 65.5013 81.694 65.666C82.0753 65.822 82.4177 66.0647 82.721 66.394C83.0243 66.7147 83.2627 67.1177 83.436 67.603L82.201 68.045C82.0363 67.5683 81.8023 67.213 81.499 66.979C81.1957 66.7363 80.8533 66.6107 80.472 66.602C80.134 66.602 79.835 66.6583 79.575 66.771C79.3237 66.875 79.1287 67.0267 78.99 67.226C78.8513 67.4167 78.782 67.6463 78.782 67.915C78.782 68.2183 78.8687 68.474 79.042 68.682C79.224 68.89 79.4493 69.0633 79.718 69.202C79.9953 69.332 80.3637 69.4837 80.823 69.657C81.421 69.891 81.902 70.1077 82.266 70.307C82.63 70.5063 82.942 70.788 83.202 71.152C83.462 71.5073 83.592 71.9623 83.592 72.517C83.592 73.0543 83.4577 73.5267 83.189 73.934C82.9203 74.3413 82.5347 74.6577 82.032 74.883C81.538 75.1083 80.9573 75.2167 80.29 75.208C79.5967 75.1993 78.9727 75.0087 78.418 74.636C77.8633 74.2547 77.3823 73.713 76.975 73.011L78.119 72.374ZM89.5901 71.724C89.5901 71.2127 89.4774 70.8053 89.2521 70.502C89.0267 70.1987 88.7277 70.047 88.3551 70.047C88.0777 70.047 87.8221 70.1293 87.5881 70.294C87.3541 70.45 87.1677 70.6667 87.0291 70.944C86.8991 71.2213 86.8341 71.5247 86.8341 71.854V75H85.4561V65.822H86.8341V69.8L86.7821 69.709C86.9727 69.449 87.2111 69.241 87.4971 69.085C87.7917 68.929 88.0777 68.851 88.3551 68.851C88.8577 68.851 89.3084 68.968 89.7071 69.202C90.1057 69.436 90.4177 69.761 90.6431 70.177C90.8684 70.5843 90.9811 71.048 90.9811 71.568V75H89.5901V71.724ZM94.1707 68.903V75.104H92.7927V68.903H94.1707ZM93.4817 65.809C93.7071 65.809 93.8934 65.8827 94.0407 66.03C94.1881 66.1773 94.2617 66.3637 94.2617 66.589C94.2617 66.8143 94.1881 67.0007 94.0407 67.148C93.8934 67.2953 93.7071 67.369 93.4817 67.369C93.2564 67.369 93.0701 67.2953 92.9227 67.148C92.7754 67.0007 92.7017 66.8143 92.7017 66.589C92.7017 66.3637 92.7754 66.1773 92.9227 66.03C93.0701 65.8827 93.2564 65.809 93.4817 65.809ZM96.7281 75.117V67.59C96.7281 67.018 96.9058 66.537 97.2611 66.147C97.6251 65.7483 98.0931 65.5317 98.6651 65.497C98.9338 65.4797 99.2111 65.5187 99.4971 65.614C99.7918 65.7007 100.017 65.822 100.173 65.978L99.4711 66.992C99.3324 66.8707 99.2111 66.7927 99.1071 66.758C99.0031 66.7147 98.8948 66.7017 98.7821 66.719C98.5828 66.7363 98.4181 66.8273 98.2881 66.992C98.1668 67.148 98.1061 67.3473 98.1061 67.59V75.117H96.7281ZM95.6361 68.89H99.8481V70.112H95.6361V68.89ZM102.213 66.732H103.591V75.117H102.213V66.732ZM101.043 68.903H105.06V70.099H101.043V68.903Z"
    fill="#3472EB"
  />
  <rect x="195" y="91" width="34" height="34" rx="4" fill="#ECF2FD" />
  <path
    d="M216.003 105C216.475 105 216.762 105.521 216.51 105.92L212.553 112.195C212.317 112.569 211.773 112.569 211.538 112.195L207.58 105.92C207.328 105.521 207.615 105 208.088 105H216.003Z"
    fill="#3472EB"
  />
  <rect x="195" y="53" width="34" height="34" rx="4" fill="#ECF2FD" />
  <path
    d="M208.088 73C207.616 73 207.329 72.4795 207.581 72.0799L211.538 65.8047C211.773 65.4315 212.318 65.4315 212.553 65.8047L216.511 72.0799C216.763 72.4795 216.475 73 216.003 73H208.088Z"
    fill="#3472EB"
  />
  <rect x="157" y="91" width="34" height="34" rx="4" fill="#ECF2FD" />
  <path
    d="M177.591 111.923C177.591 112.393 177.075 112.68 176.675 112.433L170.342 108.51C169.963 108.275 169.963 107.725 170.342 107.49L176.675 103.567C177.075 103.32 177.591 103.607 177.591 104.077V111.923Z"
    fill="#3472EB"
  />
  <rect x="233" y="91" width="34" height="34" rx="4" fill="#ECF2FD" />
  <path
    d="M248.223 111.923C248.223 112.393 248.739 112.68 249.139 112.433L255.471 108.51C255.85 108.275 255.85 107.725 255.471 107.49L249.139 103.567C248.739 103.32 248.223 103.607 248.223 104.077V111.923Z"
    fill="#3472EB"
  />
  <rect x="113" y="91" width="34" height="34" rx="4" fill="#ECF2FD" />
  <path
    d="M130.659 113.104H129.19L128.228 110.491H124.289L123.288 113.104H121.819L125.446 103.51H127.097L130.659 113.104ZM127.773 109.295L126.278 105.252L124.731 109.295H127.773ZM133.124 103.822V113.104H131.746V103.822H133.124ZM135.257 104.732H136.635V113.117H135.257V104.732ZM134.087 106.903H138.104V108.099H134.087V106.903Z"
    fill="#3472EB"
  />
  <rect x="68" y="91" width="41" height="34" rx="4" fill="#ECF2FD" />
  <path
    d="M83.0484 113.208C82.1298 113.208 81.3108 113 80.5914 112.584C79.8808 112.168 79.3218 111.587 78.9144 110.842C78.5158 110.097 78.3164 109.252 78.3164 108.307C78.3164 107.354 78.5158 106.509 78.9144 105.772C79.3218 105.027 79.8808 104.446 80.5914 104.03C81.3108 103.614 82.1298 103.406 83.0484 103.406C83.6898 103.406 84.2964 103.532 84.8684 103.783C85.4404 104.034 85.9474 104.385 86.3894 104.836L85.4794 105.733C85.1848 105.386 84.8208 105.113 84.3874 104.914C83.9628 104.715 83.5121 104.615 83.0354 104.615C82.3768 104.615 81.7961 104.771 81.2934 105.083C80.7908 105.386 80.4008 105.82 80.1234 106.383C79.8461 106.938 79.7074 107.579 79.7074 108.307C79.7074 109.035 79.8461 109.681 80.1234 110.244C80.4008 110.799 80.7908 111.232 81.2934 111.544C81.7961 111.847 82.3768 111.999 83.0354 111.999C83.5208 111.999 83.9671 111.899 84.3744 111.7C84.7818 111.501 85.1328 111.236 85.4274 110.907L86.3894 111.778C85.9388 112.237 85.4318 112.593 84.8684 112.844C84.3138 113.095 83.7071 113.217 83.0484 113.208ZM88.7443 104.732H90.1223V113.117H88.7443V104.732ZM87.5743 106.903H91.5913V108.099H87.5743V106.903ZM94.0077 108.086C94.1204 107.843 94.2851 107.631 94.5017 107.449C94.7271 107.258 94.9741 107.115 95.2427 107.02C95.5114 106.925 95.7844 106.881 96.0617 106.89V108.164C95.7064 108.147 95.3814 108.229 95.0867 108.411C94.8007 108.584 94.5754 108.818 94.4107 109.113C94.2461 109.408 94.1637 109.715 94.1637 110.036V113.117H92.7857V106.916H94.1637V108.138L94.0077 108.086ZM98.7573 103.822V113.104H97.3793V103.822H98.7573Z"
    fill="#3472EB"
  />
</svg>
