<svg width="335" height="177" viewBox="0 0 335 177" fill="none" xmlns="http://www.w3.org/2000/svg">
  <rect x="37" y="47" width="142" height="83" rx="7" fill="#ECF2FD" stroke="#CCDDFF" stroke-width="2" />
  <path
    opacity="0.6"
    d="M49 61.5C49 59.567 50.567 58 52.5 58H165.5C167.433 58 169 59.567 169 61.5C169 63.433 167.433 65 165.5 65H52.5C50.567 65 49 63.433 49 61.5Z"
    fill="#B2D5FF"
  />
  <path
    opacity="0.6"
    d="M49 74.5C49 72.567 50.567 71 52.5 71H136.5C138.433 71 140 72.567 140 74.5C140 76.433 138.433 78 136.5 78H52.5C50.567 78 49 76.433 49 74.5Z"
    fill="#B2D5FF"
  />
  <path
    opacity="0.6"
    d="M49 87.5C49 85.567 50.567 84 52.5 84H112.5C114.433 84 116 85.567 116 87.5C116 89.433 114.433 91 112.5 91H52.5C50.567 91 49 89.433 49 87.5Z"
    fill="#B2D5FF"
  />
  <rect x="185.5" y="74" width="81" height="56" rx="5" fill="#ECF2FD" stroke="#CCDDFF" stroke-width="2" />
  <path
    opacity="0.6"
    d="M191.5 83C191.5 81.8954 192.395 81 193.5 81H253.5C254.605 81 255.5 81.8954 255.5 83C255.5 84.1046 254.605 85 253.5 85H193.5C192.395 85 191.5 84.1046 191.5 83Z"
    fill="#B2D5FF"
  />
  <path
    opacity="0.6"
    d="M191.5 92.5C191.5 91.1193 192.619 90 194 90H238C239.381 90 240.5 91.1193 240.5 92.5C240.5 93.8807 239.381 95 238 95H194C192.619 95 191.5 93.8807 191.5 92.5Z"
    fill="#B2D5FF"
  />
  <path
    opacity="0.6"
    d="M191.5 102C191.5 100.895 192.395 100 193.5 100H225.5C226.605 100 227.5 100.895 227.5 102C227.5 103.105 226.605 104 225.5 104H193.5C192.395 104 191.5 103.105 191.5 102Z"
    fill="#B2D5FF"
  />
  <rect x="273" y="89" width="25" height="41" rx="3" fill="#ECF2FD" stroke="#CCDDFF" stroke-width="2" />
  <path
    opacity="0.6"
    d="M277 95.5C277 94.6716 277.672 94 278.5 94H293.5C294.328 94 295 94.6716 295 95.5C295 96.3284 294.328 97 293.5 97H278.5C277.672 97 277 96.3284 277 95.5Z"
    fill="#B2D5FF"
  />
  <path
    opacity="0.6"
    d="M277 101.5C277 100.672 277.672 100 278.5 100H288.5C289.328 100 290 100.672 290 101.5C290 102.328 289.328 103 288.5 103H278.5C277.672 103 277 102.328 277 101.5Z"
    fill="#B2D5FF"
  />
  <path
    opacity="0.6"
    d="M277 107.5C277 106.672 277.672 106 278.5 106H284.5C285.328 106 286 106.672 286 107.5C286 108.328 285.328 109 284.5 109H278.5C277.672 109 277 108.328 277 107.5Z"
    fill="#B2D5FF"
  />
</svg>
