<svg width="335" height="177" viewBox="0 0 335 177" fill="none" xmlns="http://www.w3.org/2000/svg">
  <rect opacity="0.5" x="44" y="76" width="104" height="12" rx="6" fill="#D6E9FF" />
  <rect opacity="0.5" x="44" y="100" width="61" height="12" rx="6" fill="#D6E9FF" />
  <rect opacity="0.5" x="44" y="124" width="43" height="12" rx="6" fill="#D6E9FF" />
  <g filter="url(#filter0_ddd_2292_39153)">
    <rect x="101" y="72" width="200" height="52" rx="10" fill="white" shape-rendering="crispEdges" />
    <rect x="105" y="76" width="192" height="44" rx="6" fill="#3472EB" />
    <path
      d="M124.334 104.667V101.25L125.917 101.417C126.378 101.391 126.814 101.2 127.145 100.878C127.477 100.557 127.681 100.127 127.72 99.6667V94.9167C127.726 93.7161 127.254 92.5626 126.409 91.7097C125.564 90.8569 124.415 90.3747 123.214 90.3692C122.014 90.3637 120.86 90.8353 120.008 91.6803C119.155 92.5253 118.673 93.6745 118.667 94.875C118.667 97.2084 119.214 97.42 119.5 98.6667C119.694 99.4196 119.702 100.208 119.524 100.965L118.667 104.667M133.5 102.833C134.672 101.662 135.33 100.073 135.331 98.4159C135.331 96.759 134.674 95.1698 133.503 93.9975M131.167 100.5C131.44 100.227 131.656 99.9033 131.802 99.5468C131.949 99.1902 132.023 98.8081 132.022 98.4226C132.02 98.0371 131.941 97.6558 131.791 97.3007C131.641 96.9456 131.422 96.6239 131.146 96.354"
      stroke="white"
      stroke-width="2"
      stroke-linecap="round"
      stroke-linejoin="round"
    />
    <rect opacity="0.2" x="145" y="90" width="140" height="16" rx="8" fill="#D9D9D9" />
  </g>
  <rect x="35.9" y="41.9" width="106.2" height="25.2" rx="3.1" stroke="#175DE5" stroke-width="1.8" />
  <rect opacity="0.5" x="43.71" y="47.9678" width="90.5806" height="12.1935" rx="6.09677" fill="#D6E9FF" />
  <defs>
    <filter
      id="filter0_ddd_2292_39153"
      x="89"
      y="66"
      width="224"
      height="76"
      filterUnits="userSpaceOnUse"
      color-interpolation-filters="sRGB"
    >
      <feFlood flood-opacity="0" result="BackgroundImageFix" />
      <feColorMatrix
        in="SourceAlpha"
        type="matrix"
        values="0 0 0 0 0 0 0 0 0 0 0 0 0 0 0 0 0 0 127 0"
        result="hardAlpha"
      />
      <feOffset />
      <feGaussianBlur stdDeviation="2" />
      <feComposite in2="hardAlpha" operator="out" />
      <feColorMatrix type="matrix" values="0 0 0 0 0.313726 0 0 0 0 0.329412 0 0 0 0 0.352941 0 0 0 0.08 0" />
      <feBlend mode="normal" in2="BackgroundImageFix" result="effect1_dropShadow_2292_39153" />
      <feColorMatrix
        in="SourceAlpha"
        type="matrix"
        values="0 0 0 0 0 0 0 0 0 0 0 0 0 0 0 0 0 0 127 0"
        result="hardAlpha"
      />
      <feOffset dy="4" />
      <feGaussianBlur stdDeviation="4" />
      <feComposite in2="hardAlpha" operator="out" />
      <feColorMatrix type="matrix" values="0 0 0 0 0.313726 0 0 0 0 0.329412 0 0 0 0 0.352941 0 0 0 0.08 0" />
      <feBlend mode="normal" in2="effect1_dropShadow_2292_39153" result="effect2_dropShadow_2292_39153" />
      <feColorMatrix
        in="SourceAlpha"
        type="matrix"
        values="0 0 0 0 0 0 0 0 0 0 0 0 0 0 0 0 0 0 127 0"
        result="hardAlpha"
      />
      <feOffset dy="6" />
      <feGaussianBlur stdDeviation="6" />
      <feComposite in2="hardAlpha" operator="out" />
      <feColorMatrix type="matrix" values="0 0 0 0 0.313726 0 0 0 0 0.329412 0 0 0 0 0.352941 0 0 0 0.12 0" />
      <feBlend mode="normal" in2="effect2_dropShadow_2292_39153" result="effect3_dropShadow_2292_39153" />
      <feBlend mode="normal" in="SourceGraphic" in2="effect3_dropShadow_2292_39153" result="shape" />
    </filter>
  </defs>
</svg>
