<svg xmlns="http://www.w3.org/2000/svg" fill="currentColor" viewBox="0 0 140 25">
  <path
    d="M31.37 7.402v4.204c-.33-.065-.898-.081-1.26-.081-2.885 0-4.54 1.965-4.54 4.768v6.12h-4.336V7.548h4.335v4.026c.473-2.4 1.876-4.316 4.509-4.316 2.633 0 .93.032 1.293.145Zm15.292 9.278H36.321c.583 1.594 2.033 2.4 3.972 2.4 1.94 0 2.428-.307 3.5-1.144l1.955 2.094c-1.198 1.546-3.28 2.657-5.927 2.657-4.02 0-7.662-2.802-7.662-7.683 0-4.88 3.657-7.731 7.41-7.731 3.751 0 8.023 2.625 7.093 9.422v-.016Zm-10.42-3.174h6.62c-.299-1.707-1.78-2.545-3.247-2.545-1.465 0-2.9.773-3.373 2.545Zm11.776 1.466c0-5.17 3.641-7.715 6.936-7.715 3.294 0 4.083 1.433 4.303 1.965h.08V7.53h4.334v14.851h-4.335v-1.69h-.079c-.22.547-1.734 1.964-4.303 1.964-2.57 0-6.936-2.545-6.936-7.715v.032Zm11.428 0c0-2.432-1.702-3.77-3.61-3.77-1.907 0-3.546 1.37-3.546 3.77s1.702 3.77 3.547 3.77c1.844 0 3.61-1.338 3.61-3.77ZM81.232 2.118v20.28h-4.335v-1.692h-.08c-.22.548-1.733 1.965-4.303 1.965s-6.936-2.544-6.936-7.715c0-5.17 3.642-7.715 6.936-7.715 3.295 0 4.083 1.433 4.304 1.965h.079V2.118h4.335Zm-4.225 12.854c0-2.432-1.703-3.769-3.61-3.769-1.907 0-3.547 1.37-3.547 3.77s1.703 3.768 3.547 3.768 3.61-1.337 3.61-3.769Zm6.117 0c0-5.17 3.642-7.715 6.936-7.715 3.295 0 4.083 1.433 4.304 1.965h.078V7.53h4.336v14.851h-4.336v-1.69h-.078c-.221.547-1.734 1.964-4.304 1.964-2.57 0-6.936-2.545-6.936-7.715v.032Zm11.429 0c0-2.432-1.703-3.77-3.61-3.77-1.907 0-3.547 1.37-3.547 3.77s1.703 3.77 3.547 3.77 3.61-1.338 3.61-3.77Zm22.494 0c0 5.17-3.641 7.716-6.936 7.716s-4.083-1.434-4.304-1.966h-.078v1.692h-4.335V2.118h4.335v7.12h.078c.221-.548 1.734-1.965 4.304-1.965 2.57 0 6.936 2.545 6.936 7.715v-.016Zm-4.256 0c0-2.4-1.734-3.769-3.579-3.769-1.844 0-3.594 1.337-3.594 3.77 0 2.431 1.703 3.768 3.594 3.768 1.892 0 3.579-1.369 3.579-3.769Zm6.148-12.854h4.336v20.28h-4.336V2.118ZM139.7 16.68h-10.341c.583 1.594 2.033 2.4 3.972 2.4s2.428-.307 3.5-1.144l1.955 2.094c-1.198 1.546-3.279 2.657-5.927 2.657-4.02 0-7.662-2.802-7.662-7.683 0-4.88 3.657-7.731 7.409-7.731s8.024 2.625 7.094 9.422v-.016Zm-10.42-3.174h6.621c-.3-1.707-1.781-2.545-3.247-2.545s-2.901.773-3.374 2.545ZM13.02 2.65v16.64L-.062 24.394V7.756L13.02 2.65Z"
  />
</svg>
