<svg width="146" height="25" viewBox="0 0 146 25" fill="none" xmlns="http://www.w3.org/2000/svg">
  <g clip-path="url(#clip0_2253_35898)">
    <path
      d="M32.7556 7.29896V11.6782C32.41 11.611 31.8174 11.5943 31.4388 11.5943C28.4267 11.5943 26.6984 13.6412 26.6984 16.5607V22.9365H22.1719V7.44996H26.6984V11.6446C27.1922 9.14459 28.6571 7.14795 31.4059 7.14795C34.1547 7.14795 32.3771 7.18151 32.7556 7.29896Z"
      fill="white"
    />
    <path
      d="M48.7223 16.9632H37.9245C38.5336 18.6243 40.0479 19.4632 42.0725 19.4632C44.097 19.4632 44.6073 19.1444 45.7266 18.2719L47.7676 20.4531C46.5166 22.0639 44.3439 23.2216 41.5787 23.2216C37.3814 23.2216 33.5791 20.3021 33.5791 15.2182C33.5791 10.1343 37.3978 7.16455 41.3153 7.16455C45.2328 7.16455 49.6934 9.89945 48.7223 16.98V16.9632ZM37.8422 13.6578H44.7554C44.4427 11.8793 42.8955 11.0068 41.3647 11.0068C39.8339 11.0068 38.336 11.8122 37.8422 13.6578Z"
      fill="white"
    />
    <path
      d="M50.1377 15.1849C50.1377 9.79896 53.94 7.14795 57.3801 7.14795C60.8202 7.14795 61.6432 8.64124 61.8737 9.19493H61.956V7.43318H66.4825V22.903H61.956V21.1412H61.8737C61.6432 21.7117 60.0631 23.1882 57.3801 23.1882C54.6971 23.1882 50.1377 20.5372 50.1377 15.1513V15.1849ZM62.0712 15.1849C62.0712 12.6513 60.2935 11.2587 58.3018 11.2587C56.3102 11.2587 54.5984 12.6849 54.5984 15.1849C54.5984 17.6849 56.376 19.111 58.3018 19.111C60.2277 19.111 62.0712 17.7184 62.0712 15.1849Z"
      fill="white"
    />
    <path
      d="M84.8184 1.79541V22.9196H80.2919V21.1578H80.2096C79.9792 21.7283 78.399 23.2048 75.716 23.2048C73.033 23.2048 68.4736 20.5538 68.4736 15.1679C68.4736 9.78199 72.2759 7.13098 75.716 7.13098C79.1562 7.13098 79.9792 8.62427 80.2096 9.17796H80.2919V1.79541H84.8184ZM80.4071 15.1847C80.4071 12.6511 78.6294 11.2585 76.6378 11.2585C74.6461 11.2585 72.9343 12.6847 72.9343 15.1847C72.9343 17.6847 74.712 19.1108 76.6378 19.1108C78.5636 19.1108 80.4071 17.7182 80.4071 15.1847Z"
      fill="white"
    />
    <path
      d="M86.7939 15.1849C86.7939 9.79896 90.5962 7.14795 94.0363 7.14795C97.4765 7.14795 98.2995 8.64124 98.5299 9.19493H98.6122V7.43318H103.139V22.903H98.6122V21.1412H98.5299C98.2995 21.7117 96.7193 23.1882 94.0363 23.1882C91.3534 23.1882 86.7939 20.5372 86.7939 15.1513V15.1849ZM98.7274 15.1849C98.7274 12.6513 96.9498 11.2587 94.9581 11.2587C92.9664 11.2587 91.2546 12.6849 91.2546 15.1849C91.2546 17.6849 93.0323 19.111 94.9581 19.111C96.8839 19.111 98.7274 17.7184 98.7274 15.1849Z"
      fill="white"
    />
    <path
      d="M122.216 15.1847C122.216 20.5706 118.414 23.2216 114.973 23.2216C111.533 23.2216 110.71 21.7283 110.48 21.1746H110.398V22.9363H105.871V1.79541H110.398V9.21152H110.48C110.71 8.64105 112.29 7.16454 114.973 7.16454C117.656 7.16454 122.216 9.81554 122.216 15.2015V15.1847ZM117.772 15.1847C117.772 12.6847 115.961 11.2585 114.035 11.2585C112.109 11.2585 110.282 12.6511 110.282 15.1847C110.282 17.7182 112.06 19.1108 114.035 19.1108C116.01 19.1108 117.772 17.6847 117.772 15.1847Z"
      fill="white"
    />
    <path d="M124.19 1.79541H128.717V22.9196H124.19V1.79541Z" fill="white" />
    <path
      d="M145.869 16.9632H135.071C135.68 18.6243 137.194 19.4632 139.219 19.4632C141.244 19.4632 141.754 19.1444 142.873 18.2719L144.914 20.4531C143.663 22.0639 141.49 23.2216 138.725 23.2216C134.528 23.2216 130.726 20.3021 130.726 15.2182C130.726 10.1343 134.544 7.16455 138.462 7.16455C142.379 7.16455 146.84 9.89945 145.869 16.98V16.9632ZM134.989 13.6578H141.902C141.589 11.8793 140.042 11.0068 138.511 11.0068C136.98 11.0068 135.483 11.8122 134.989 13.6578Z"
      fill="white"
    />
    <path d="M13.5964 2.34912V19.6813L-0.0654297 25.0001V7.66791L13.5964 2.34912Z" fill="white" />
  </g>
  <defs>
    <clipPath id="clip0_2253_35898">
      <rect width="146" height="25" fill="white" />
    </clipPath>
  </defs>
</svg>
