<svg xmlns="http://www.w3.org/2000/svg" fill="currentColor" viewBox="0 0 103 25">
  <path
    d="M48.597 9.845c0 5.288-3.857 9.587-9.529 9.587-5.671 0-9.663-4.29-9.663-9.587S33.29.26 39.068.26c2.898 0 5.336 1.075 7.044 2.83L42.83 6.027c-.854-.94-2.15-1.545-3.762-1.545-3.34 0-5.153 2.533-5.153 5.364s1.804 5.365 5.153 5.365c2.227 0 3.81-1.21 4.559-2.88L40.93 8.858h7.61c.029.288.057.681.057.998v-.01ZM50.814.26h4.194v19.173h-4.194V.259ZM71.61 6.372l-7.12 17.887h-4.223l1.968-5.163-5.518-12.724h4.53l3.022 7.437 2.879-7.437h4.463Zm1.756 0h4.194v1.487c.989-1.046 2.38-1.497 3.829-1.497 3.608 0 5.911 2.984 5.911 6.679 0 3.694-2.303 6.63-5.911 6.63-1.372 0-2.85-.364-3.829-1.314v5.892h-4.194V6.362v.01Zm9.683 6.669c0-1.727-1.055-2.985-2.792-2.985-1.737 0-2.822 1.258-2.822 2.985 0 1.727 1.056 2.936 2.822 2.936 1.765 0 2.792-1.286 2.792-2.936ZM93.786.259v7.859c.672-.921 1.833-1.44 3.311-1.44 3.081 0 5.105 2.227 5.105 5.47v7.294h-4.193v-6.66c0-1.382-.7-2.274-2.073-2.274-1.372 0-2.073.892-2.073 2.274v6.66H89.66V.259h4.127ZM8.13.259H.48v19.183h7.65V.259Zm15.2 0H9.838v19.183H23.33V.259Z"
  />
</svg>
