<svg viewBox="0 0 101 26" xmlns="http://www.w3.org/2000/svg">
  <path
    d="M21.4914 13.4977L3.36609 0.305404C2.94144 -0.0024641 2.57695 -0.0696995 2.33278 0.0683103C2.08861 0.209859 1.96476 0.556653 2.02138 1.08038L4.38524 23.3743C4.49494 24.4182 5.33007 24.8428 6.24306 24.3191L21.3817 15.5785C22.2911 15.0548 22.3407 14.117 21.4914 13.4977Z"
    fill="#3F51B5"
  />
  <path
    d="M8.89319 5.82951L5.61988 6.63987L3.35156 4.62988L4.28932 13.4519L5.97021 11.4561L9.32491 11.7816L7.54494 8.9188L8.89319 5.82951Z"
    fill="#F5F196"
  />
  <path
    d="M9.68946 7.34036L11.1757 7.95609L12.524 7.08203L12.3966 8.68507L13.6493 9.69714L12.0852 10.0722L11.5084 11.5762L10.6661 10.2032L9.05957 10.1182L10.1035 8.89385L9.68946 7.34036Z"
    fill="#F5F196"
  />
  <path
    d="M24.3681 13.1327L24.3717 13.1221L24.3646 13.1044C24.3398 13.0195 24.3115 12.9345 24.2655 12.8567L24.1947 12.7364L23.5967 11.6995C23.5365 11.5969 23.4622 11.512 23.3738 11.4341C23.1862 11.2713 22.942 11.1758 22.6837 11.1758C22.4997 11.1758 22.3192 11.2253 22.16 11.3173L2.13087 22.8818C1.62837 23.172 1.45498 23.8161 1.74515 24.3186L2.41397 25.4757C2.54136 25.6987 2.75015 25.8614 2.98724 25.9428L2.99078 25.9464H2.99786C3.10402 25.9818 3.21372 25.9995 3.32696 25.9995C3.51097 25.9995 3.69144 25.9499 3.85068 25.8579L23.8798 14.2934C24.2903 14.0563 24.4743 13.575 24.3681 13.1327Z"
    fill="#3F51B5"
  />
  <path
    d="M20.1638 12.4682H20.1602L19.1729 13.038L15.5847 10.4229L3.74414 17.2596L4.21125 21.6795L20.1638 12.4682Z"
    fill="#F5F196"
  />
  <path
    d="M2.99843 1.2643L20.9291 14.3151C21.1096 14.446 21.145 14.5486 21.1414 14.5663C21.1414 14.584 21.0954 14.6831 20.9043 14.7928L5.7657 23.5334C5.57461 23.6431 5.46491 23.6325 5.44722 23.6254C5.42952 23.6183 5.35875 23.5334 5.33398 23.314L2.99843 1.2643ZM2.33669 0.0717556C2.09252 0.213304 1.96866 0.560098 2.02528 1.08383L4.38914 23.3777C4.49884 24.4216 5.33398 24.8463 6.24697 24.3226L21.3856 15.5819C22.295 15.0582 22.3446 14.1204 21.4953 13.5012L3.36645 0.305311C2.94181 -0.00255744 2.58086 -0.0697929 2.33669 0.0717556Z"
    fill="#3F51B5"
  />
  <path
    d="M94.5398 3.30469H97.6358V19.1687H94.5398V3.30469ZM92.2598 7.43269H100.396V10.0967H92.2598V7.43269Z"
    fill="#3F51B5"
  />
  <path
    d="M85.4394 19.1925C84.3354 19.1925 83.3514 18.9445 82.4874 18.4485C81.6394 17.9525 80.9754 17.2645 80.4954 16.3845C80.0154 15.4885 79.7754 14.4805 79.7754 13.3605C79.7754 12.2085 80.0154 11.1925 80.4954 10.3125C80.9754 9.41647 81.6394 8.72047 82.4874 8.22447C83.3514 7.72847 84.3354 7.48047 85.4394 7.48047C86.8954 7.48047 87.9994 7.83247 88.7514 8.53647C89.5034 9.24047 90.0234 9.92047 90.3114 10.5765L90.3354 10.6245C90.6074 11.2165 90.7674 11.8325 90.8154 12.4725C90.8634 13.1125 90.8714 13.7125 90.8394 14.2725V14.4645H82.7274C82.8234 14.8805 83.0074 15.2565 83.2794 15.5925C83.5514 15.9125 83.8794 16.1685 84.2634 16.3605C84.6474 16.5365 85.0394 16.6245 85.4394 16.6245C86.1114 16.6245 86.6474 16.5045 87.0474 16.2645C87.4474 16.0245 87.7354 15.7605 87.9114 15.4725L87.9594 15.4005L90.4794 16.4085C90.1594 17.1765 89.5674 17.8325 88.7034 18.3765C87.8394 18.9205 86.7514 19.1925 85.4394 19.1925ZM87.9834 12.3765C87.8874 11.9125 87.7354 11.5045 87.5274 11.1525C87.3194 10.8005 87.0394 10.5285 86.6874 10.3365C86.3354 10.1445 85.9194 10.0485 85.4394 10.0485C84.7514 10.0485 84.1594 10.2645 83.6634 10.6965C83.1834 11.1125 82.8714 11.6725 82.7274 12.3765H87.9834Z"
    fill="#3F51B5"
  />
  <path
    d="M74.2061 13.0005C74.2061 12.0725 73.9981 11.3605 73.5821 10.8645C73.1821 10.3685 72.5901 10.1205 71.8061 10.1205C71.3581 10.1365 70.9421 10.2645 70.5581 10.5045C70.1741 10.7285 69.8781 11.0565 69.6701 11.4885C69.4621 11.9205 69.3661 12.4245 69.3821 13.0005V19.1685H66.2861V7.48047H69.3821V9.78447L69.0461 9.71247C69.3501 9.05647 69.8221 8.52847 70.4621 8.12847C71.1181 7.72847 71.7821 7.52847 72.4541 7.52847C73.1901 7.52847 73.9261 7.69647 74.6621 8.03247C75.3981 8.36847 76.0221 8.94447 76.5341 9.76047C77.0461 10.5605 77.3021 11.6245 77.3021 12.9525V19.1685H74.2061V13.0005Z"
    fill="#3F51B5"
  />
  <path
    d="M56.7931 19.2405C55.7211 19.2405 54.7771 18.9925 53.9611 18.4965C53.1451 17.9845 52.5051 17.2885 52.0411 16.4085C51.5931 15.5125 51.3691 14.4965 51.3691 13.3605C51.3691 12.2245 51.5931 11.2165 52.0411 10.3365C52.5051 9.44047 53.1451 8.74447 53.9611 8.24847C54.7771 7.75247 55.7211 7.50447 56.7931 7.50447C57.4011 7.50447 58.0011 7.64847 58.5931 7.93647C59.2011 8.20847 59.7051 8.63247 60.1051 9.20847L59.9851 9.37647V7.48047H63.0811V19.1685H59.9851V17.3445L60.1051 17.5365C59.8331 17.9365 59.5051 18.2645 59.1211 18.5205C58.7531 18.7605 58.3691 18.9365 57.9691 19.0485C57.5691 19.1765 57.1771 19.2405 56.7931 19.2405ZM57.1531 16.6725C57.6651 16.6725 58.1371 16.5285 58.5691 16.2405C59.0011 15.9525 59.3451 15.5605 59.6011 15.0645C59.8731 14.5525 60.0091 13.9845 60.0091 13.3605C60.0091 12.7365 59.8731 12.1765 59.6011 11.6805C59.3451 11.1685 59.0011 10.7685 58.5691 10.4805C58.1371 10.1925 57.6651 10.0485 57.1531 10.0485C56.6091 10.0485 56.1291 10.1845 55.7131 10.4565C55.3131 10.7285 55.0011 11.1125 54.7771 11.6085C54.5691 12.1045 54.4651 12.6885 54.4651 13.3605C54.4651 14.0485 54.5691 14.6405 54.7771 15.1365C55.0011 15.6325 55.3131 16.0165 55.7131 16.2885C56.1291 16.5445 56.6091 16.6725 57.1531 16.6725Z"
    fill="#3F51B5"
  />
  <path d="M49.1028 1.81641V19.1444H46.0068V1.81641H49.1028Z" fill="#3F51B5" />
  <path
    d="M37.976 16.6246C38.52 16.6246 38.992 16.4966 39.392 16.2406C39.808 15.9686 40.12 15.5846 40.328 15.0886C40.552 14.5766 40.664 13.9846 40.664 13.3126C40.664 12.6406 40.552 12.0566 40.328 11.5606C40.12 11.0486 39.808 10.6566 39.392 10.3846C38.992 10.1126 38.52 9.97662 37.976 9.97662C37.448 9.97662 36.96 10.1286 36.512 10.4326C36.08 10.7206 35.736 11.1206 35.48 11.6326C35.224 12.1446 35.096 12.7046 35.096 13.3126C35.096 13.9206 35.224 14.4806 35.48 14.9926C35.736 15.5046 36.08 15.9046 36.512 16.1926C36.96 16.4806 37.448 16.6246 37.976 16.6246ZM38.312 7.43262C39.384 7.43262 40.328 7.68862 41.144 8.20062C41.976 8.69662 42.616 9.39262 43.064 10.2886C43.528 11.1686 43.76 12.1766 43.76 13.3126C43.76 14.4646 43.528 15.4886 43.064 16.3846C42.616 17.2646 41.976 17.9526 41.144 18.4486C40.328 18.9446 39.384 19.1926 38.312 19.1926C38.04 19.1926 37.712 19.1446 37.328 19.0486C36.944 18.9526 36.544 18.7766 36.128 18.5206C35.712 18.2646 35.352 17.9206 35.048 17.4886L35.096 17.0806V24.1846H32V7.45662H35.096V9.44862L35.048 9.13662C35.48 8.54462 36.016 8.11262 36.656 7.84062C37.312 7.56862 37.864 7.43262 38.312 7.43262Z"
    fill="#3F51B5"
  />
</svg>
