<svg xmlns="http://www.w3.org/2000/svg" fill="currentColor" viewBox="0 0 32 32">
  <path
    d="M26.45 16.613 4.14.376c-.52-.379-.97-.462-1.27-.292-.301.174-.453.601-.384 1.246l2.91 27.438c.135 1.285 1.163 1.808 2.286 1.163l18.632-10.757c1.12-.645 1.18-1.8.135-2.561z"
  />
  <path fill="#ffffff" d="m10.944 7.175-4.028.997-2.792-2.474 1.154 10.858L7.347 14.1l4.129.4-2.191-3.523z" />
  <path
    d="m11.924 9.034 1.83.758 1.659-1.076-.157 1.973 1.542 1.246-1.925.462-.71 1.85-1.037-1.69-1.977-.104 1.285-1.507z"
  />
  <path
    d="m29.99 16.164.005-.013-.01-.022a1.312 1.312 0 0 0-.121-.305l-.087-.148-.736-1.276a1.32 1.32 0 0 0-.275-.327 1.29 1.29 0 0 0-1.494-.144L2.622 28.164a1.296 1.296 0 0 0-.475 1.768l.823 1.424c.156.275.413.475.705.575l.005.005h.008a1.272 1.272 0 0 0 1.05-.11l24.651-14.232a1.3 1.3 0 0 0 .601-1.429z"
  />
  <path fill="#ffffff" d="M24.816 15.345h-.004l-1.215.701-4.417-3.218-14.573 8.414.575 5.44z" />
  <path
    d="M3.688 1.556 25.757 17.62c.222.16.266.287.261.309 0 .022-.056.144-.292.279L7.094 28.964c-.235.135-.37.122-.392.114-.022-.01-.109-.114-.14-.384L3.689 1.556M2.874.088c-.3.175-.453.601-.383 1.246L5.4 28.773c.135 1.285 1.163 1.807 2.287 1.163l18.632-10.758c1.119-.645 1.18-1.799.135-2.561L4.14.376c-.52-.379-.966-.462-1.266-.288Z"
  />
</svg>
