<svg viewBox="0 0 255 171" fill="none" xmlns="http://www.w3.org/2000/svg">
  <circle cx="9.28261" cy="11.5004" r="9.28261" fill="#FF5E00" />
  <path
    d="M33.6079 8.12052H35.6925V9.71183H33.4647L33.2101 12.8149H35.3106V14.4221H33.1146L32.8759 17.1273H31.221L31.4756 14.4221H28.4521L28.2293 17.1273H26.5744L26.8131 14.4221H24.7284V12.8149H26.9244L27.1791 9.71183H25.1422V8.12052H27.3064L27.5451 5.38348H29.1841L28.9613 8.12052H31.9689L32.1917 5.38348H33.8466L33.6079 8.12052ZM28.5476 12.8149H31.5711L31.8416 9.71183H28.834L28.5476 12.8149ZM45.1747 6.86339H39.4301V10.5075H44.2995V11.9715H39.4301V17.1273H37.7433V5.38348H45.1747V6.86339ZM54.6371 6.86339H48.8925V10.5075H53.7619V11.9715H48.8925V17.1273H47.2057V5.38348H54.6371V6.86339ZM56.8958 10.7462C57.2459 10.3537 57.7021 10.0301 58.2643 9.77548C58.8372 9.52087 59.3888 9.39356 59.9193 9.39356C60.7043 9.39356 61.4045 9.558 62.0198 9.88687C62.6457 10.2157 63.1284 10.6772 63.4679 11.2713C63.818 11.8548 63.993 12.5231 63.993 13.2763C63.993 14.0402 63.818 14.7191 63.4679 15.3132C63.1284 15.9073 62.6457 16.3741 62.0198 16.7136C61.4045 17.0424 60.7043 17.2069 59.9193 17.2069C59.304 17.2069 58.7205 17.0796 58.1688 16.825C57.6278 16.5597 57.1663 16.199 56.7844 15.7429C56.4025 15.2761 56.1426 14.751 56.0047 14.1675L57.6437 13.7856C57.7604 14.316 58.0309 14.7563 58.4553 15.1063C58.8796 15.4458 59.3676 15.6156 59.9193 15.6156C60.3754 15.6156 60.7839 15.5148 61.1446 15.3132C61.5159 15.1117 61.8023 14.8358 62.0039 14.4857C62.2054 14.125 62.3062 13.7219 62.3062 13.2763C62.3062 12.8308 62.2054 12.4383 62.0039 12.0988C61.8023 11.7487 61.5159 11.4782 61.1446 11.2872C60.7839 11.0857 60.3754 10.9849 59.9193 10.9849C59.6222 10.9849 59.3093 11.0697 58.9804 11.2395C58.6515 11.3986 58.3704 11.6055 58.137 11.8601L56.8958 10.7462ZM56.4502 11.6532L56.8481 5.46304H63.0382V6.94296H58.4712L58.137 11.8601L56.4502 11.6532ZM73.4066 6.86339H67.5028V10.3483H72.5791V11.8123H67.5028V15.6474H73.4066V17.1273H65.816V5.38348H73.4066V6.86339ZM79.4288 15.6633C79.9486 15.6633 80.4101 15.4777 80.8132 15.1063C81.2164 14.735 81.5293 14.2205 81.7521 13.5628C81.9749 12.8944 82.0863 12.1253 82.0863 11.2554C82.0863 10.3855 81.9749 9.61635 81.7521 8.948C81.5293 8.27965 81.2164 7.75983 80.8132 7.38852C80.4101 7.01722 79.9486 6.83156 79.4288 6.83156C78.909 6.83156 78.4422 7.01722 78.0284 7.38852C77.6253 7.75983 77.3124 8.27965 77.0896 8.948C76.8668 9.61635 76.7554 10.3855 76.7554 11.2554C76.7554 12.1253 76.8668 12.8944 77.0896 13.5628C77.3124 14.2205 77.6253 14.735 78.0284 15.1063C78.4422 15.4777 78.909 15.6633 79.4288 15.6633ZM79.4288 17.1591C78.5907 17.1591 77.8375 16.9098 77.1691 16.4112C76.5114 15.902 75.9969 15.2018 75.6256 14.3107C75.2543 13.409 75.0686 12.3905 75.0686 11.2554C75.0686 10.1097 75.2543 9.09122 75.6256 8.20009C75.9969 7.29835 76.5114 6.59817 77.1691 6.09956C77.8269 5.60096 78.5801 5.35165 79.4288 5.35165C80.2669 5.35165 81.0148 5.60096 81.6725 6.09956C82.3303 6.59817 82.8448 7.29835 83.2161 8.20009C83.5874 9.09122 83.773 10.1097 83.773 11.2554C83.773 12.3905 83.5874 13.409 83.2161 14.3107C82.8448 15.2018 82.3303 15.902 81.6725 16.4112C81.0148 16.9098 80.2669 17.1591 79.4288 17.1591ZM89.6061 15.6633C90.1259 15.6633 90.5874 15.4777 90.9905 15.1063C91.3936 14.735 91.7066 14.2205 91.9294 13.5628C92.1521 12.8944 92.2635 12.1253 92.2635 11.2554C92.2635 10.3855 92.1521 9.61635 91.9294 8.948C91.7066 8.27965 91.3936 7.75983 90.9905 7.38852C90.5874 7.01722 90.1259 6.83156 89.6061 6.83156C89.0862 6.83156 88.6194 7.01722 88.2057 7.38852C87.8026 7.75983 87.4896 8.27965 87.2668 8.948C87.0441 9.61635 86.9327 10.3855 86.9327 11.2554C86.9327 12.1253 87.0441 12.8944 87.2668 13.5628C87.4896 14.2205 87.8026 14.735 88.2057 15.1063C88.6194 15.4777 89.0862 15.6633 89.6061 15.6633ZM89.6061 17.1591C88.768 17.1591 88.0147 16.9098 87.3464 16.4112C86.6887 15.902 86.1741 15.2018 85.8028 14.3107C85.4315 13.409 85.2459 12.3905 85.2459 11.2554C85.2459 10.1097 85.4315 9.09122 85.8028 8.20009C86.1741 7.29835 86.6887 6.59817 87.3464 6.09956C88.0041 5.60096 88.7574 5.35165 89.6061 5.35165C90.4441 5.35165 91.1921 5.60096 91.8498 6.09956C92.5075 6.59817 93.0221 7.29835 93.3934 8.20009C93.7647 9.09122 93.9503 10.1097 93.9503 11.2554C93.9503 12.3905 93.7647 13.409 93.3934 14.3107C93.0221 15.2018 92.5075 15.902 91.8498 16.4112C91.1921 16.9098 90.4441 17.1591 89.6061 17.1591Z"
    fill="#FF5E00"
  />
  <path d="M9 29V131C9 133.209 10.7909 135 13 135H108" stroke="#FFB488" stroke-dasharray="2 2" />
  <path d="M9 29V85C9 87.2091 10.7909 89 13 89H71" stroke="#FFB488" stroke-dasharray="2 2" />
  <rect x="43" y="46" width="211" height="124" rx="7" stroke="#EDEDED" stroke-width="2" />
  <rect x="43" y="46" width="211" height="124" rx="7" stroke="#E7E7E7" stroke-width="2" />
  <path
    d="M58 76C58 74.3431 59.3431 73 61 73H70C71.6569 73 73 74.3431 73 76C73 77.6569 71.6569 79 70 79H61C59.3431 79 58 77.6569 58 76Z"
    fill="#ECECEC"
  />
  <path
    d="M107 78C107 75.2386 109.239 73 112 73H132C134.761 73 137 75.2386 137 78C137 80.7614 134.761 83 132 83H112C109.239 83 107 80.7614 107 78Z"
    fill="#ECECEC"
  />
  <path
    d="M107 91C107 88.2386 109.239 86 112 86H234C236.761 86 239 88.2386 239 91C239 93.7614 236.761 96 234 96H112C109.239 96 107 93.7614 107 91Z"
    fill="#ECECEC"
  />
  <path
    d="M107 105C107 102.239 109.239 100 112 100H234C236.761 100 239 102.239 239 105C239 107.761 236.761 110 234 110H112C109.239 110 107 107.761 107 105Z"
    fill="#ECECEC"
  />
  <path
    d="M107 119C107 116.239 109.239 114 112 114H192C194.761 114 197 116.239 197 119C197 121.761 194.761 124 192 124H112C109.239 124 107 121.761 107 119Z"
    fill="#ECECEC"
  />
  <path
    d="M107 151C107 148.239 109.239 146 112 146H162C164.761 146 167 148.239 167 151C167 153.761 164.761 156 162 156H112C109.239 156 107 153.761 107 151Z"
    fill="#ECECEC"
  />
  <path
    d="M184 60C184 57.2386 186.239 55 189 55H234C236.761 55 239 57.2386 239 60C239 62.7614 236.761 65 234 65H189C186.239 65 184 62.7614 184 60Z"
    fill="#ECECEC"
  />
  <path
    d="M58 89C58 87.3431 59.3431 86 61 86H85C86.6569 86 88 87.3431 88 89C88 90.6569 86.6569 92 85 92H61C59.3431 92 58 90.6569 58 89Z"
    fill="#FF5E00"
  />
  <path
    d="M58 97C58 95.3431 59.3431 94 61 94H85C86.6569 94 88 95.3431 88 97C88 98.6569 86.6569 100 85 100H61C59.3431 100 58 98.6569 58 97Z"
    fill="#F0F0F0"
  />
  <path
    d="M58 105C58 103.343 59.3431 102 61 102H85C86.6569 102 88 103.343 88 105C88 106.657 86.6569 108 85 108H61C59.3431 108 58 106.657 58 105Z"
    fill="#F0F0F0"
  />
  <path
    d="M58 113C58 111.343 59.3431 110 61 110H85C86.6569 110 88 111.343 88 113C88 114.657 86.6569 116 85 116H61C59.3431 116 58 114.657 58 113Z"
    fill="#F0F0F0"
  />
  <rect x="108" y="130" width="1" height="10" fill="#FF5E00" />
  <path
    d="M109 130H234C236.761 130 239 132.239 239 135C239 137.761 236.761 140 234 140H109V130Z"
    fill="#FF5E00"
    fill-opacity="0.04"
  />
</svg>
