<svg width="24" height="24" viewBox="0 0 24 24" fill="none" xmlns="http://www.w3.org/2000/svg">
  <rect width="24" height="24" fill="#F2F2F3" />
  <path d="M12.5726 20V13.3856H13.9986V18.7974H18.6601V20H12.5726Z" fill="#B8BBBF" />
  <path
    d="M3.99988 20V13.4041L9.36547 13.3856C10.0726 13.3856 10.5955 13.5398 10.9342 13.8482C11.2788 14.1504 11.4511 14.6067 11.4511 15.2173C11.4511 15.8279 11.255 16.275 10.8628 16.5587C11.1243 16.7067 11.3174 16.904 11.4422 17.1507C11.567 17.3913 11.6294 17.7027 11.6294 18.0851C11.6294 18.708 11.457 19.1829 11.1124 19.5097C10.7737 19.8304 10.2508 19.9908 9.54373 19.9908L3.99988 20ZM9.19613 14.5697H5.42595V16.0499H9.19613C9.73685 16.0499 10.0072 15.797 10.0072 15.2913C10.0072 14.8103 9.73685 14.5697 9.19613 14.5697ZM9.37439 17.234H5.42595V18.8066H9.37439C9.91511 18.8066 10.1855 18.5415 10.1855 18.0111C10.1855 17.493 9.91511 17.234 9.37439 17.234Z"
    fill="#B8BBBF"
  />
  <path
    d="M12.4596 10.6236V4.00925H13.5113L16.3635 4C17.5162 4 18.4105 4.28061 19.0463 4.84183C19.6821 5.40305 20 6.22638 20 7.31182C20 8.39726 19.6821 9.22059 19.0463 9.78181C18.4105 10.343 17.5162 10.6236 16.3635 10.6236H12.4596ZM16.2654 5.20262H13.8857V9.42103H16.2654C17.0141 9.42103 17.5816 9.25143 17.9678 8.91223C18.354 8.57303 18.5471 8.03956 18.5471 7.31182C18.5471 6.57792 18.354 6.04445 17.9678 5.71142C17.5816 5.37222 17.0141 5.20262 16.2654 5.20262Z"
    fill="#B8BBBF"
  />
  <path
    d="M3.99988 10.6234V4.009H9.33874C9.99829 4.009 10.5093 4.18169 10.8718 4.52705C11.2402 4.87242 11.4244 5.39664 11.4244 6.09971C11.4244 6.69793 11.2907 7.16664 11.0233 7.50584C10.7559 7.84504 10.3756 8.05781 9.88243 8.14416L11.3531 10.6234H9.73091L8.36722 8.19041H5.42595V10.6234H3.99988ZM9.16939 5.21162H5.42595V6.97854L9.16939 6.98779C9.43084 6.98779 9.62989 6.91995 9.76656 6.78427C9.90916 6.64859 9.98047 6.4204 9.98047 6.09971C9.98047 5.77284 9.90916 5.54465 9.76656 5.41514C9.62989 5.27946 9.43084 5.21162 9.16939 5.21162Z"
    fill="#B8BBBF"
  />
</svg>
