<svg viewBox="0 0 20 20" fill="none" xmlns="http://www.w3.org/2000/svg">
  <path
    d="M13.3333 15C13.7754 15 14.1993 15.1756 14.5118 15.4881C14.8244 15.8007 15 16.2246 15 16.6666C15 16.2246 15.1756 15.8007 15.4882 15.4881C15.8007 15.1756 16.2246 15 16.6667 15C16.2246 15 15.8007 14.8244 15.4882 14.5118C15.1756 14.1993 15 13.7753 15 13.3333C15 13.7753 14.8244 14.1993 14.5118 14.5118C14.1993 14.8244 13.7754 15 13.3333 15ZM13.3333 4.99998C13.7754 4.99998 14.1993 5.17557 14.5118 5.48813C14.8244 5.8007 15 6.22462 15 6.66665C15 6.22462 15.1756 5.8007 15.4882 5.48813C15.8007 5.17557 16.2246 4.99998 16.6667 4.99998C16.2246 4.99998 15.8007 4.82438 15.4882 4.51182C15.1756 4.19926 15 3.77534 15 3.33331C15 3.77534 14.8244 4.19926 14.5118 4.51182C14.1993 4.82438 13.7754 4.99998 13.3333 4.99998ZM7.5 15C7.5 13.6739 8.02678 12.4021 8.96447 11.4644C9.90215 10.5268 11.1739 9.99998 12.5 9.99998C11.1739 9.99998 9.90215 9.4732 8.96447 8.53551C8.02678 7.59783 7.5 6.32606 7.5 4.99998C7.5 6.32606 6.97322 7.59783 6.03553 8.53551C5.09785 9.4732 3.82608 9.99998 2.5 9.99998C3.82608 9.99998 5.09785 10.5268 6.03553 11.4644C6.97322 12.4021 7.5 13.6739 7.5 15Z"
    stroke="currentColor"
    stroke-width="2"
    stroke-linecap="round"
    stroke-linejoin="round"
  />
</svg>
