<svg viewBox="0 0 25 25" xmlns="http://www.w3.org/2000/svg">
  <path
    fill-rule="evenodd"
    clip-rule="evenodd"
    d="M2.91699 12.2837C2.91699 6.89869 7.28199 2.53369 12.667 2.53369C18.052 2.53369 22.417 6.89869 22.417 12.2837C22.417 17.6687 18.052 22.0337 12.667 22.0337C7.28199 22.0337 2.91699 17.6687 2.91699 12.2837ZM16.277 10.4697C16.337 10.3897 16.3804 10.2986 16.4047 10.2016C16.429 10.1047 16.4336 10.0038 16.4183 9.90505C16.4031 9.80626 16.3682 9.71152 16.3158 9.62639C16.2635 9.54126 16.1946 9.46747 16.1132 9.40934C16.0319 9.35122 15.9398 9.30993 15.8423 9.28792C15.7448 9.26591 15.6439 9.26361 15.5455 9.28115C15.4471 9.2987 15.3532 9.33574 15.2693 9.3901C15.1854 9.44446 15.1132 9.51504 15.057 9.59769L11.821 14.1277L10.197 12.5037C10.0548 12.3712 9.86677 12.2991 9.67247 12.3025C9.47817 12.3059 9.29278 12.3847 9.15537 12.5221C9.01796 12.6595 8.93924 12.8449 8.93582 13.0392C8.93239 13.2335 9.00451 13.4215 9.13699 13.5637L11.387 15.8137C11.464 15.8906 11.5568 15.9499 11.659 15.9873C11.7612 16.0248 11.8703 16.0396 11.9788 16.0306C12.0872 16.0217 12.1924 15.9892 12.2871 15.9355C12.3818 15.8818 12.4636 15.8082 12.527 15.7197L16.277 10.4697Z"
    fill="currentColor"
  />
</svg>
